<svg xmlns="http://www.w3.org/2000/svg" viewBox="0 0 102.7 102.7"><defs><style>.cls-1{fill:#fff;fill-rule:evenodd;}</style></defs><title>btn-user</title><g id="Layer_2" data-name="Layer 2"><g id="ativos"><path id="btn-user" class="cls-1" d="M51.36,102.7A51.35,51.35,0,1,1,102.7,51.35h0A51.4,51.4,0,0,1,51.36,102.7ZM83.05,85.38A34.83,34.83,0,0,0,73,82c-5-1.25-11.75-2.16-11.16-8a15.87,15.87,0,0,1-16.09,2.65c-1.73-.71-2.9-2.19-4.16-2.08C42,80.23,35.13,80.84,30.46,82a30,30,0,0,0-10.37,3.8A46.29,46.29,0,0,0,83.05,85.38ZM54.87,22.55c-15.63-1.34-23.26,9.33-21,25-.61.27-1.52.24-1.7.95,0,4.69.93,8.54,4.35,9.84C38.22,66,43.66,75,53.35,73.84c7.83-1,12.12-8.55,13.82-15.52,3.29-1.33,4.47-5.7,4.16-10-.07-.75-1.26-.39-1.7-.76C72.44,35.28,65.36,23.45,54.87,22.55ZM51.36,4.78a46.52,46.52,0,0,0-34.27,78,14.4,14.4,0,0,1,2.76-2c5-2.63,11.5-2.3,17.6-5.3V70.26C35,68,34.6,64.37,32.91,61.36c-1-1.8-2.58-2.82-3.4-4.75A15.66,15.66,0,0,1,28,48.67c.17-1.58,1.15-2.57,1.33-4,.24-2-.18-4,0-5.87a22.4,22.4,0,0,1,19.3-20.44h6.43a22.43,22.43,0,0,1,19.29,22c.09,1.43-.42,3-.19,4.55s1.42,2.74,1.51,4.35a15.75,15.75,0,0,1-5.11,12.11,25.64,25.64,0,0,1-4.35,8.9v5.1c5.1,3,12,2.8,17,5.3A16.25,16.25,0,0,1,86,82.41,46.49,46.49,0,0,0,51.36,4.78Z"/></g></g></svg>