<svg xmlns="http://www.w3.org/2000/svg" viewBox="0 0 102.39 83.92"><defs><style>.cls-1{fill:#fff;}</style></defs><title>btn-shopcart</title><g id="Layer_2" data-name="Layer 2"><g id="ativos"><g id="btn-shopcart"><path id="btn-shopcart-2" data-name="btn-shopcart" class="cls-1" d="M39.81,64a10,10,0,1,0,10,10A10,10,0,0,0,39.81,64Zm0,15.83h0A5.86,5.86,0,1,1,45.66,74,5.86,5.86,0,0,1,39.81,79.82Z"/><path id="btn-shopcart-3" data-name="btn-shopcart" class="cls-1" d="M80.34,64h0a10,10,0,1,0,10,10A10,10,0,0,0,80.31,64Zm0,15.83h0A5.86,5.86,0,1,1,86.19,74,5.86,5.86,0,0,1,80.31,79.82Z"/><path id="btn-shopcart-4" data-name="btn-shopcart" class="cls-1" d="M101.43,8.4a5.53,5.53,0,0,0-4.91-2.21c-4.61.07-64.66,0-65.16,0a2.13,2.13,0,0,0,0,4.26c2,0,60.58.07,65.2,0a1.78,1.78,0,0,1,1.35.37,5.16,5.16,0,0,1-.48,3.9C95.32,19.16,85.44,42,84.17,44c-.19.33-.36.62-.52.91-.83,1.4-1.09,1.88-3.87,1.88H32.64C30.1,37.18,21.17,5.49,20.74,3.94c0-.09-.06-.19-.1-.28C19.16.2,15.7,0,12.05,0H2a2.14,2.14,0,1,0,.19,4.27h9.82a5.33,5.33,0,0,1,4.61,3.11c.77,2.81,11.54,38.88,12.44,42.79C30.71,57.25,35,61.88,40.93,61.88H80.76a2.14,2.14,0,0,0,0-4.27H40.93a8.06,8.06,0,0,1-7.15-6.54h46a7.17,7.17,0,0,0,7.55-4l.45-.74c1.36-2.13,11.32-25.13,13.58-29.9A8.55,8.55,0,0,0,101.43,8.4Z"/></g></g></g></svg>