<svg width="48" height="48" viewBox="0 0 48 48" fill="none" xmlns="http://www.w3.org/2000/svg">
<path d="M24 48C37.2548 48 48 37.2548 48 24C48 10.7452 37.2548 0 24 0C10.7452 0 0 10.7452 0 24C0 37.2548 10.7452 48 24 48Z" fill="white"/>
<path d="M35.6781 10.876H12.3219C11.9385 10.876 11.5707 11.0283 11.2996 11.2994C11.0285 11.5705 10.8762 11.9382 10.8762 12.3216V35.6779C10.8762 36.0613 11.0285 36.429 11.2996 36.7001C11.5707 36.9712 11.9385 37.1235 12.3219 37.1235H24.8979V26.9588H21.4588V23.0058H24.8809V20.0807C24.8809 16.6924 26.9477 14.8458 29.9633 14.8458C30.9838 14.8412 32.0038 14.894 33.0183 15.004V18.5447H30.9233C29.2743 18.5447 28.9581 19.3296 28.9581 20.476V23.0058H32.8828L32.3689 26.9588H28.9807V37.1235H35.6725C36.0559 37.1235 36.4236 36.9712 36.6947 36.7001C36.9658 36.429 37.1181 36.0613 37.1181 35.6779V12.3216C37.1181 11.9392 36.9666 11.5723 36.6967 11.3014C36.4268 11.0304 36.0605 10.8775 35.6781 10.876Z" fill="url(#paint0_linear)"/>
<defs>
<linearGradient id="paint0_linear" x1="11.2308" y1="11.362" x2="37.7915" y2="35.7841" gradientUnits="userSpaceOnUse">
<stop stop-color="#A5EF42"/>
<stop offset="1" stop-color="#8CC73D"/>
</linearGradient>
</defs>
</svg>
