<svg width="512" height="512" xmlns="http://www.w3.org/2000/svg">

 <g>
  <title>background</title>
  <rect fill="none" id="canvas_background" height="402" width="582" y="-1" x="-1"/>
 </g>
 <g>
  <title>Layer 1</title>
  <path id="svg_6" d="m256.671428,461.37c-2.652,0 -5.196,-1.054 -7.071,-2.929c-26.654,-26.654 -53.027,-50.242 -78.533,-73.054c-38.323,-34.275 -74.521,-66.65 -100.385,-100.342c-29.303,-38.171 -42.951,-74.695 -42.951,-114.945c0,-65.876 53.594,-119.47 119.47,-119.47c55.358,0 84.608,26.631 109.468,70.721c24.853,-44.091 54.099,-70.721 109.462,-70.721c65.947,0 119.6,53.594 119.6,119.47c0,40.229 -13.648,76.739 -42.954,114.897c-25.863,33.676 -62.054,66.03 -100.369,100.284c-25.551,22.844 -51.972,46.464 -78.665,73.16c-1.876,1.875 -4.419,2.929 -7.072,2.929zm-109.47,-390.74c-54.848,0 -99.47,44.622 -99.47,99.47c0,78.147 60.312,132.088 136.669,200.38c23.465,20.987 47.66,42.626 72.271,66.81c24.653,-24.226 48.896,-45.899 72.407,-66.919c76.348,-68.256 136.653,-122.168 136.653,-200.271c0,-54.848 -44.681,-99.47 -99.6,-99.47c-46.532,0 -71.896,19.322 -100.516,76.572c-1.694,3.388 -5.156,5.528 -8.944,5.528c-3.788,0 -7.251,-2.14 -8.945,-5.527c-28.63,-57.251 -53.996,-76.573 -100.525,-76.573z"/>
 </g>
</svg>