<svg xmlns="http://www.w3.org/2000/svg" viewBox="0 0 49.39 49.39"><defs><style>.cls-1{fill:#fff;}</style></defs><title>btn-social-ig</title><g id="Layer_2" data-name="Layer 2"><g id="ativos"><path id="btn-social-ig" class="cls-1" d="M24.7,19.25a5.45,5.45,0,1,0,5.44,5.45,5.45,5.45,0,0,0-5.44-5.45ZM24.7,0A24.7,24.7,0,1,0,49.39,24.7h0A24.7,24.7,0,0,0,24.7,0ZM40.92,31.42a12,12,0,0,1-.76,4,8.36,8.36,0,0,1-4.77,4.77,11.94,11.94,0,0,1-4,.76c-1.74.08-2.3.1-6.73.1s-5,0-6.73-.1a12,12,0,0,1-4-.76,8.36,8.36,0,0,1-4.77-4.77,12.21,12.21,0,0,1-.76-4c-.08-1.74-.1-2.29-.1-6.73s0-5,.1-6.73a12.2,12.2,0,0,1,.76-4A8.33,8.33,0,0,1,14,9.23a12,12,0,0,1,4-.76c1.74-.08,2.29-.1,6.73-.1s5,0,6.73.1a11.94,11.94,0,0,1,4,.76A8.36,8.36,0,0,1,40.16,14a11.94,11.94,0,0,1,.76,4c.08,1.75.1,2.3.1,6.73S41,29.68,40.92,31.42Zm-3.5-16.35a5.44,5.44,0,0,0-3.1-3.1,8.93,8.93,0,0,0-3-.56c-1.72-.08-2.24-.1-6.59-.1s-4.88,0-6.6.1a9,9,0,0,0-3,.56,5.44,5.44,0,0,0-3.1,3.1,8.93,8.93,0,0,0-.56,3c-.08,1.72-.09,2.24-.09,6.6s0,4.87.09,6.59a8.93,8.93,0,0,0,.56,3,5.44,5.44,0,0,0,3.1,3.1,9,9,0,0,0,3,.56c1.72.08,2.24.1,6.6.1s4.87,0,6.59-.1a8.93,8.93,0,0,0,3-.56,5.44,5.44,0,0,0,3.1-3.1,8.93,8.93,0,0,0,.56-3c.08-1.72.1-2.24.1-6.59s0-4.88-.1-6.6A8.93,8.93,0,0,0,37.42,15.07Zm-12.72,18a8.39,8.39,0,1,1,8.38-8.38h0a8.39,8.39,0,0,1-8.38,8.38Zm8.71-15.14a2,2,0,1,1,2-2h0a2,2,0,0,1-2,2h0Z"/></g></g></svg>