<svg width="32" height="32" xmlns="http://www.w3.org/2000/svg">
 <title/>
 <desc/>

 <g>
  <title>background</title>
  <rect fill="none" id="canvas_background" height="402" width="582" y="-1" x="-1"/>
 </g>
 <g>
  <title>Layer 1</title>
  <path fill="#8cc73d" id="medal" d="m19,1l-5,0l0,14.3736c0.79042,-0.24288 1.62995,-0.3736 2.5,-0.3736c0.87005,0 1.70958,0.13072 2.5,0.3736l0,-14.3736l0,0zm1,0l4,0l0,13l-1.24733,3.74198c-0.7696,-0.8353 -1.70445,-1.516 -2.75267,-1.99024l0,-14.75174l0,0zm-7,0l-4,0l0,13l1.24733,3.74198l0,0c0.7696,-0.8353 1.70445,-1.516 2.75267,-1.99024l0,-14.75174l0,0zm3.5,30c4.14214,0 7.5,-3.35786 7.5,-7.5c0,-4.14214 -3.35786,-7.5 -7.5,-7.5c-4.14214,0 -7.5,3.35786 -7.5,7.5c0,4.14214 3.35786,7.5 7.5,7.5l0,0z"/>
 </g>
</svg>