<svg width="48" height="48" viewBox="0 0 48 48" fill="none" xmlns="http://www.w3.org/2000/svg">
<path d="M24 47.9999C37.2548 47.9999 48 37.2547 48 23.9999C48 10.745 37.2548 -0.00012207 24 -0.00012207C10.7452 -0.00012207 0 10.745 0 23.9999C0 37.2547 10.7452 47.9999 24 47.9999Z" fill="white"/>
<path d="M10.5601 37.5024L12.4575 30.5678C10.9872 28.0155 10.4 25.0494 10.7869 22.1294C11.1738 19.2094 12.5132 16.4985 14.5974 14.4172C16.6817 12.3358 19.3943 11.0002 22.3149 10.6173C25.2354 10.2345 28.2007 10.8258 30.751 12.2996C33.3013 13.7734 35.2941 16.0474 36.4206 18.769C37.5471 21.4906 37.7442 24.5078 36.9815 27.3529C36.2188 30.198 34.5388 32.7119 32.202 34.5051C29.8652 36.2982 27.002 37.2704 24.0565 37.2708C21.8214 37.2722 19.6216 36.713 17.6584 35.6445L10.5601 37.5024ZM17.9859 33.2219L18.3925 33.4591C20.1012 34.4746 22.0519 35.0111 24.0396 35.012C26.2398 35.012 28.3907 34.3596 30.2201 33.1372C32.0496 31.9148 33.4755 30.1773 34.3175 28.1446C35.1595 26.1118 35.3798 23.875 34.9505 21.717C34.5213 19.559 33.4618 17.5768 31.9059 16.021C30.8778 14.9826 29.6533 14.1592 28.3037 13.5988C26.9541 13.0384 25.5065 12.7523 24.0452 12.757C22.057 12.7569 20.1051 13.2894 18.3924 14.2991C16.6796 15.3087 15.2686 16.7587 14.306 18.4984C13.3434 20.238 12.8643 22.2037 12.9186 24.1912C12.9728 26.1787 13.5585 28.1153 14.6146 29.7998L14.88 30.2177L13.7506 34.3231L17.9859 33.2219Z" fill="url(#paint0_linear)"/>
<path fill-rule="evenodd" clip-rule="evenodd" d="M30.7992 27.0723C30.7145 26.9311 30.4943 26.8464 30.1611 26.6827C29.8279 26.5189 28.179 25.7057 27.9023 25.5928C27.6256 25.4798 27.3715 25.4234 27.1512 25.7622C26.931 26.101 26.2872 26.8464 26.0896 27.0723C25.8919 27.2982 25.6999 27.3208 25.3667 27.157C24.3813 26.7636 23.4717 26.2018 22.6787 25.4968C21.9482 24.8198 21.3205 24.0398 20.8152 23.1815C20.7788 23.1273 20.7538 23.0664 20.7414 23.0024C20.7291 22.9383 20.7298 22.8724 20.7435 22.8086C20.7573 22.7449 20.7837 22.6845 20.8212 22.6312C20.8587 22.5778 20.9066 22.5326 20.962 22.4982C21.1145 22.3457 21.2952 22.1086 21.4646 21.9335C21.6006 21.7611 21.7126 21.5712 21.7978 21.3688C21.8433 21.2816 21.8671 21.1848 21.8671 21.0864C21.8671 20.9881 21.8433 20.8912 21.7978 20.8041C21.7131 20.6403 21.0468 18.9914 20.7701 18.325C20.4933 17.6587 20.2053 17.7603 20.0133 17.7603C19.8213 17.7603 19.5954 17.7603 19.3752 17.7603C19.2057 17.7644 19.0388 17.8037 18.8853 17.8756C18.7317 17.9476 18.5947 18.0506 18.483 18.1782C18.1056 18.5369 17.8069 18.9701 17.6057 19.4503C17.4045 19.9305 17.3052 20.4473 17.314 20.9678C17.314 22.6168 18.5112 24.2036 18.675 24.4295C18.8387 24.6554 21.0354 28.0267 24.3898 29.478C25.0138 29.7451 25.6508 29.9807 26.2985 30.1838C26.9811 30.3897 27.7022 30.4342 28.4049 30.3137C29.0486 30.2177 30.3813 29.5062 30.6637 28.7269C30.8771 28.2022 30.9244 27.6247 30.7992 27.0723Z" fill="url(#paint1_linear)"/>
<defs>
<linearGradient id="paint0_linear" x1="10.9233" y1="11.0038" x2="38.234" y2="36.0085" gradientUnits="userSpaceOnUse">
<stop stop-color="#A5EF42"/>
<stop offset="1" stop-color="#8CC73D"/>
</linearGradient>
<linearGradient id="paint1_linear" x1="17.4966" y1="17.9886" x2="30.3164" y2="30.6462" gradientUnits="userSpaceOnUse">
<stop stop-color="#A5EF42"/>
<stop offset="1" stop-color="#8CC73D"/>
</linearGradient>
</defs>
</svg>
