<svg width="463" height="345" viewBox="0 0 463 345" fill="none" xmlns="http://www.w3.org/2000/svg">
<path d="M34.6248 131.952C34.4143 131.391 34.2555 130.813 34.1504 130.223C32.4949 120.006 24.6915 62.5625 68.0395 43.2817C89.3861 33.786 113.579 18.1183 191.85 47.0799C284.229 81.2641 344.598 23.3409 358.829 23.3409C373.06 23.3409 405.317 2.45057 443.267 43.2817C481.216 84.1127 452.754 133.49 452.754 133.49C452.754 133.49 434.728 180.018 440.42 203.757C446.113 227.496 452.754 246.488 450.857 254.084C448.959 261.68 448.01 312.957 416.702 324.351C385.393 335.746 395.83 333.847 322.776 330.049C249.723 326.251 211.774 336.696 196.594 342.393C181.414 348.09 158.644 346.191 117.848 318.654C77.0525 291.117 67.5651 299.663 46.6928 287.319C25.8205 274.974 -27.2047 206.701 17.2818 157.229C34.4777 138.105 35.0517 133.153 34.6248 131.952Z" fill="white"/>
<path d="M92.7774 109.443C100.658 109.443 107.046 103.049 107.046 95.1618C107.046 87.2744 100.658 80.8804 92.7774 80.8804C84.8968 80.8804 78.5083 87.2744 78.5083 95.1618C78.5083 103.049 84.8968 109.443 92.7774 109.443Z" fill="white"/>
<path d="M108.275 104.819C113.641 104.819 117.99 100.466 117.99 95.0954C117.99 89.7253 113.641 85.3719 108.275 85.3719C102.91 85.3719 98.5601 89.7253 98.5601 95.0954C98.5601 100.466 102.91 104.819 108.275 104.819Z" fill="white"/>
<path d="M76.5208 102.72C80.8383 102.72 84.3384 99.2172 84.3384 94.8959C84.3384 90.5746 80.8383 87.0715 76.5208 87.0715C72.2032 87.0715 68.7031 90.5746 68.7031 94.8959C68.7031 99.2172 72.2032 102.72 76.5208 102.72Z" fill="white"/>
<path d="M372.661 86.8009C380.542 86.8009 386.93 80.4069 386.93 72.5195C386.93 64.6322 380.542 58.2382 372.661 58.2382C364.78 58.2382 358.392 64.6322 358.392 72.5195C358.392 80.4069 364.78 86.8009 372.661 86.8009Z" fill="white"/>
<path d="M388.158 82.1766C393.524 82.1766 397.874 77.8232 397.874 72.4531C397.874 67.0829 393.524 62.7296 388.158 62.7296C382.793 62.7296 378.443 67.0829 378.443 72.4531C378.443 77.8232 382.793 82.1766 388.158 82.1766Z" fill="white"/>
<path d="M356.404 80.078C360.722 80.078 364.222 76.5749 364.222 72.2537C364.222 67.9324 360.722 64.4293 356.404 64.4293C352.087 64.4293 348.587 67.9324 348.587 72.2537C348.587 76.5749 352.087 80.078 356.404 80.078Z" fill="white"/>
<path d="M217.812 136.582C225.693 136.582 232.081 130.188 232.081 122.3C232.081 114.413 225.693 108.019 217.812 108.019C209.931 108.019 203.543 114.413 203.543 122.3C203.543 130.188 209.931 136.582 217.812 136.582Z" fill="white"/>
<path d="M233.305 131.957C238.67 131.957 243.02 127.604 243.02 122.234C243.02 116.864 238.67 112.51 233.305 112.51C227.939 112.51 223.59 116.864 223.59 122.234C223.59 127.604 227.939 131.957 233.305 131.957Z" fill="white"/>
<path d="M201.555 129.859C205.873 129.859 209.373 126.356 209.373 122.034C209.373 117.713 205.873 114.21 201.555 114.21C197.238 114.21 193.738 117.713 193.738 122.034C193.738 126.356 197.238 129.859 201.555 129.859Z" fill="white"/>
<path d="M11.1143 248.388C11.1143 248.388 20.1273 235.094 21.076 233.195C22.0248 231.296 21.5504 223.699 21.5504 223.699H18.2298C18.2298 223.699 21.076 215.628 29.1403 215.628C37.2046 215.628 39.5765 219.426 40.5252 221.325C41.474 223.224 40.9996 224.174 40.9996 224.174H38.1534V231.77L51.9101 254.56H57.6026V291.593C57.6026 291.593 23.9223 274.026 11.1143 248.388Z" fill="#FF7412"/>
<path d="M42.897 282.097H49.5382V272.601C49.5382 272.601 46.2176 267.379 42.897 272.601V282.097Z" fill="white"/>
<path d="M44.9607 262.788C47.274 262.788 49.1494 260.911 49.1494 258.596C49.1494 256.28 47.274 254.403 44.9607 254.403C42.6473 254.403 40.772 256.28 40.772 258.596C40.772 260.911 42.6473 262.788 44.9607 262.788Z" fill="#FFA464"/>
<path d="M13.8608 253.53C14.7612 252.895 15.875 252.641 16.9612 252.822C18.0474 253.003 19.0186 253.605 19.6647 254.498C20.3108 255.39 20.5796 256.501 20.4132 257.591C20.2468 258.68 19.6584 259.66 18.7753 260.319" fill="#FFA464"/>
<path d="M29.9846 243.778C32.2979 243.778 34.1733 241.901 34.1733 239.585C34.1733 237.27 32.2979 235.393 29.9846 235.393C27.6712 235.393 25.7959 237.27 25.7959 239.585C25.7959 241.901 27.6712 243.778 29.9846 243.778Z" fill="#FFA464"/>
<path d="M23.0208 255.229C23.0412 254.144 23.435 253.1 24.1356 252.271C24.7945 251.453 25.6191 250.782 26.5553 250.305C27.4914 249.828 28.5179 249.555 29.5672 249.503C33.9788 249.385 35.9142 253.098 36.1846 254.617C36.5926 256.91 36.5025 268.457 36.5025 268.457L26.1754 268.4L22.9402 265.005L23.0208 255.229Z" fill="white"/>
<path d="M56.521 239.899L57.6026 291.593C57.6026 291.593 77.1561 298.895 85.4007 300.637C93.6453 302.38 112.829 313.333 112.829 313.333L112.506 240.141L56.5305 239.766" fill="#C4CEF0"/>
<path d="M56.1226 239.899L112.506 240.136L112.25 226.647H95.5523C95.5523 226.647 93.4793 218.576 85.7044 218.576C76.1648 218.576 74.5757 227.075 74.5757 227.075L56.0752 226.88L56.1226 239.899Z" fill="#001B55"/>
<path d="M72.0567 247.566H62.0854V258.391H72.0567V247.566Z" fill="#001B55"/>
<path d="M90.0733 247.414H80.1021V258.239H90.0733V247.414Z" fill="#001B55"/>
<path d="M107.857 247.571H97.8862V258.396H107.857V247.571Z" fill="#001B55"/>
<path d="M108.009 267.934H98.0381V278.759H108.009V267.934Z" fill="#001B55"/>
<path d="M108.152 291.631H98.1804V302.456H108.152V291.631Z" fill="#001B55"/>
<path d="M89.6844 267.626H79.7131V278.451H89.6844V267.626Z" fill="#FF7412"/>
<path d="M89.6844 267.626H79.7131V278.451H89.6844V267.626Z" fill="#001B55"/>
<path d="M72.1326 268.091H62.1614V278.916H72.1326V268.091Z" fill="#001B55"/>
<path d="M62.3843 293.235L62.3083 290.073L71.9903 290.273L72.0187 296.64C72.0187 296.64 64.851 294.256 62.3843 293.235Z" fill="#001B55"/>
<path d="M80.249 299.194L80.1067 291.132L89.9214 291.336L89.7032 301.881L80.249 299.194Z" fill="#001B55"/>
<path d="M85.1732 234.472C88.2017 234.472 90.6569 232.015 90.6569 228.983C90.6569 225.952 88.2017 223.495 85.1732 223.495C82.1446 223.495 79.6895 225.952 79.6895 228.983C79.6895 232.015 82.1446 234.472 85.1732 234.472Z" fill="white"/>
<path d="M112.34 276.176L112.815 313.337C112.815 313.337 142.358 333.012 144.228 334.418C146.097 335.823 161.547 343.32 168.572 343.79L169.839 268.803L165.688 268.642L145.39 243.412L137.871 243.051L112.345 276.157" fill="#FF7412"/>
<path d="M112.34 276.176L137.895 244.048L140.717 244.152L143.943 244.342L145.722 244.527L165.688 268.665L169.839 268.822V267.383L165.845 267.222L146.718 243.825L146.841 234.775L137.577 234.296L137.221 243.559L112.658 255.395L112.34 276.176Z" fill="#FFA464"/>
<path d="M133.208 269.206H128.559V274.648H133.208V269.206Z" fill="white"/>
<path d="M153.705 269.249H149.057V274.69H153.705V269.249Z" fill="white"/>
<path d="M146.163 269.235H141.514V274.676H146.163V269.235Z" fill="white"/>
<path d="M139.992 269.192H135.343V274.633H139.992V269.192Z" fill="white"/>
<path d="M133.213 277.525H128.564V282.966H133.213V277.525Z" fill="white"/>
<path d="M153.71 277.567H149.061V283.008H153.71V277.567Z" fill="white"/>
<path d="M146.173 277.558H141.524V282.999H146.173V277.558Z" fill="white"/>
<path d="M140.001 277.515H135.352V282.956H140.001V277.515Z" fill="white"/>
<path d="M122.183 302.104H117.535V307.545H122.183V302.104Z" fill="white"/>
<path d="M128.222 295.846H123.573V301.287H128.222V295.846Z" fill="white"/>
<path d="M122.051 295.804H117.402V301.245H122.051V295.804Z" fill="white"/>
<path d="M128.284 302.156H123.635V307.597H128.284V302.156Z" fill="white"/>
<path d="M140.395 302.232H135.746V307.673H140.395V302.232Z" fill="white"/>
<path d="M146.429 295.975H141.78V301.415H146.429V295.975Z" fill="white"/>
<path d="M140.257 295.932H135.608V301.373H140.257V295.932Z" fill="white"/>
<path d="M146.49 302.284H141.842V307.725H146.49V302.284Z" fill="white"/>
<path d="M158.022 302.412H153.373V307.853H158.022V302.412Z" fill="white"/>
<path d="M164.056 296.15H159.407V301.591H164.056V296.15Z" fill="white"/>
<path d="M157.885 296.108H153.236V301.549H157.885V296.108Z" fill="white"/>
<path d="M164.118 302.465H159.469V307.906H164.118V302.465Z" fill="white"/>
<path d="M157.776 328.977H153.127V336.739H157.776V328.977Z" fill="white"/>
<path d="M163.814 322.714H159.166V328.155H163.814V322.714Z" fill="white"/>
<path d="M157.643 322.676H152.994V328.117H157.643V322.676Z" fill="white"/>
<path d="M145.518 322.562H140.869V328.003H145.518V322.562Z" fill="white"/>
<path d="M145.561 335.225L140.917 332.2L140.893 329.214H145.542L145.561 335.225Z" fill="white"/>
<path d="M139.346 322.52H134.698V327.961H139.346V322.52Z" fill="white"/>
<path d="M139.322 331.061L138.141 330.244L136.206 328.967L139.313 328.977L139.322 331.061Z" fill="white"/>
<path d="M163.876 329.029H159.227V336.758H163.876V329.029Z" fill="white"/>
<path d="M193.899 219.288H202.661L202.528 215.011L193.757 214.92L193.899 219.288Z" fill="#001B55"/>
<path d="M169.445 259.421L168.605 343.785C168.605 343.785 183.662 346.107 197.205 342.684C210.749 339.26 226.431 335.562 226.431 335.562L226.953 260.224L217.836 255.742L203.045 229.534L202.68 219.288H193.904L193.624 229.534L178.041 255.281L169.445 259.421Z" fill="#C4CEF0"/>
<path d="M197.708 266.657H191.959V273.817H197.708V266.657Z" fill="#001B55"/>
<path d="M205.886 266.785H199.753V273.817H205.886V266.785Z" fill="#001B55"/>
<path d="M197.58 275.156H191.831V282.315H197.58V275.156Z" fill="#001B55"/>
<path d="M205.758 275.284H199.625V282.315H205.758V275.284Z" fill="#001B55"/>
<path d="M197.831 292.215H192.082V299.374H197.831V292.215Z" fill="#001B55"/>
<path d="M184.283 292.172H178.534V299.332H184.283V292.172Z" fill="#001B55"/>
<path d="M218.286 292.49H212.537V299.65H218.286V292.49Z" fill="#001B55"/>
<path d="M218.452 324.03H212.703V331.189H218.452V324.03Z" fill="#001B55"/>
<path d="M184.35 324.234H178.601V331.393H184.35V324.234Z" fill="#001B55"/>
<path d="M206.01 292.338H199.876V299.37H206.01V292.338Z" fill="#001B55"/>
<path d="M197.703 300.713H191.954V307.873H197.703V300.713Z" fill="#001B55"/>
<path d="M205.882 300.841H199.748V307.873H205.882V300.841Z" fill="#001B55"/>
<path d="M197.727 323.241H191.978V330.401H197.727V323.241Z" fill="#001B55"/>
<path d="M205.905 323.37H199.771V330.401H205.905V323.37Z" fill="#001B55"/>
<path d="M197.599 331.745H191.85V338.904H197.599V331.745Z" fill="#001B55"/>
<path d="M205.777 331.873H199.644V338.904H205.777V331.873Z" fill="#001B55"/>
<path d="M181.727 278.636C183.946 278.636 185.745 276.836 185.745 274.615C185.745 272.394 183.946 270.593 181.727 270.593C179.508 270.593 177.709 272.394 177.709 274.615C177.709 276.836 179.508 278.636 181.727 278.636Z" fill="#001B55"/>
<path d="M214.311 279.528C216.53 279.528 218.329 277.728 218.329 275.507C218.329 273.286 216.53 271.486 214.311 271.486C212.092 271.486 210.293 273.286 210.293 275.507C210.293 277.728 212.092 279.528 214.311 279.528Z" fill="#001B55"/>
<path d="M169.445 259.422H178.207L178.069 255.144L169.298 255.054L169.445 259.422Z" fill="#001B55"/>
<path d="M218.177 260.224H226.939L226.801 255.946L218.035 255.856L218.177 260.224Z" fill="#001B55"/>
<path d="M198.605 257.351C202.419 257.351 205.511 254.257 205.511 250.439C205.511 246.621 202.419 243.526 198.605 243.526C194.79 243.526 191.698 246.621 191.698 250.439C191.698 254.257 194.79 257.351 198.605 257.351Z" fill="#001B55"/>
<path d="M223.319 260.584L223.827 296.991C223.827 296.991 225.155 335.994 225.283 335.866C228.4 332.642 276.553 329.352 282.118 329.219L280.823 253.254L276.672 253.092L256.364 227.844L248.845 227.483L223.319 260.589" fill="#FF7412"/>
<path d="M223.319 260.584L248.874 228.456L251.696 228.565L254.922 228.755L256.701 228.936L276.667 253.073L280.818 253.235V251.796L276.824 251.635L257.697 228.233L257.82 219.184L248.556 218.704L248.2 227.972L223.338 255.922L223.319 260.584Z" fill="#FFA464"/>
<path d="M244.182 253.615H239.533V259.056H244.182V253.615Z" fill="white"/>
<path d="M264.684 253.662H260.036V259.103H264.684V253.662Z" fill="white"/>
<path d="M257.142 253.648H252.493V259.089H257.142V253.648Z" fill="white"/>
<path d="M250.97 253.605H246.322V259.046H250.97V253.605Z" fill="white"/>
<path d="M244.192 261.933H239.543V267.374H244.192V261.933Z" fill="white"/>
<path d="M264.689 261.98H260.04V267.421H264.689V261.98Z" fill="white"/>
<path d="M257.152 261.966H252.503V267.407H257.152V261.966Z" fill="white"/>
<path d="M250.98 261.923H246.331V267.364H250.98V261.923Z" fill="white"/>
<path d="M233.272 290.42H228.623V295.861H233.272V290.42Z" fill="white"/>
<path d="M239.306 284.162H234.657V289.603H239.306V284.162Z" fill="white"/>
<path d="M233.134 284.119H228.485V289.56H233.134V284.119Z" fill="white"/>
<path d="M239.367 290.472H234.719V295.913H239.367V290.472Z" fill="white"/>
<path d="M251.478 290.548H246.829V295.989H251.478V290.548Z" fill="white"/>
<path d="M257.517 284.29H252.868V289.731H257.517V284.29Z" fill="white"/>
<path d="M251.345 284.248H246.696V289.689H251.345V284.248Z" fill="white"/>
<path d="M257.579 290.6H252.93V296.041H257.579V290.6Z" fill="white"/>
<path d="M269.105 290.728H264.457V296.169H269.105V290.728Z" fill="white"/>
<path d="M275.144 284.466H270.495V289.907H275.144V284.466Z" fill="white"/>
<path d="M268.973 284.423H264.324V289.864H268.973V284.423Z" fill="white"/>
<path d="M275.206 290.78H270.557V296.221H275.206V290.78Z" fill="white"/>
<path d="M233.4 314.282H228.751V319.723H233.4V314.282Z" fill="white"/>
<path d="M239.434 308.02H234.785V313.461H239.434V308.02Z" fill="white"/>
<path d="M233.262 307.977H228.613V313.418H233.262V307.977Z" fill="white"/>
<path d="M239.496 314.329H234.847V319.77H239.496V314.329Z" fill="white"/>
<path d="M251.606 314.41H246.957V319.851H251.606V314.41Z" fill="white"/>
<path d="M257.645 308.148H252.996V313.589H257.645V308.148Z" fill="white"/>
<path d="M251.473 308.105H246.824V313.546H251.473V308.105Z" fill="white"/>
<path d="M257.706 314.458H253.058V319.899H257.706V314.458Z" fill="white"/>
<path d="M269.234 314.586H264.585V320.027H269.234V314.586Z" fill="white"/>
<path d="M275.272 308.328H270.624V313.769H275.272V308.328Z" fill="white"/>
<path d="M269.101 308.285H264.452V313.726H269.101V308.285Z" fill="white"/>
<path d="M275.334 314.638H270.685V320.079H275.334V314.638Z" fill="white"/>
<path d="M286.25 243.246C286.25 243.246 298.517 223.699 299.466 221.8C300.414 219.901 299.94 212.304 299.94 212.304H296.619C296.619 212.304 299.466 204.233 307.53 204.233C315.594 204.233 317.966 208.031 318.915 209.93C319.864 211.829 319.389 212.779 319.389 212.779H316.543V220.375L330.3 243.165H335.992L337.861 330.956C337.861 330.956 283.75 328.416 282.607 329.181C282.251 329.418 282.279 326.935 282.222 326.503C281.985 324.651 279.96 257.494 280.979 243.326C280.979 243.341 286.288 243.241 286.25 243.246Z" fill="#C4CEF0"/>
<path d="M321.059 270.93H327.7V261.434C327.7 261.434 324.38 256.212 321.059 261.434V270.93Z" fill="white"/>
<path d="M289.167 271.694H295.808V262.199C295.808 262.199 292.488 256.976 289.167 262.199V271.694Z" fill="white"/>
<path d="M289.167 296.207H295.808V286.712C295.808 286.712 292.488 281.489 289.167 286.712V296.207Z" fill="white"/>
<path d="M305.025 296.492H311.667V286.997C311.667 286.997 308.346 281.774 305.025 286.997V296.492Z" fill="white"/>
<path d="M320.879 296.777H327.52V287.281C327.52 287.281 324.2 282.059 320.879 287.281V296.777Z" fill="white"/>
<path d="M289.57 319.662H296.212V310.166C296.212 310.166 292.891 304.943 289.57 310.166V319.662Z" fill="white"/>
<path d="M305.433 319.946H312.074V310.451C312.074 310.451 308.754 305.228 305.433 310.451V319.946Z" fill="white"/>
<path d="M321.296 320.236H327.937V310.74C327.937 310.74 324.617 305.518 321.296 310.74V320.236Z" fill="white"/>
<path d="M323.123 251.616C325.436 251.616 327.311 249.739 327.311 247.424C327.311 245.108 325.436 243.231 323.123 243.231C320.809 243.231 318.934 245.108 318.934 247.424C318.934 249.739 320.809 251.616 323.123 251.616Z" fill="#C4CEF0"/>
<path d="M293.18 250.98C295.494 250.98 297.369 249.103 297.369 246.788C297.369 244.472 295.494 242.595 293.18 242.595C290.867 242.595 288.992 244.472 288.992 246.788C288.992 249.103 290.867 250.98 293.18 250.98Z" fill="#C4CEF0"/>
<path d="M308.465 271.666C310.778 271.666 312.653 269.789 312.653 267.474C312.653 265.158 310.778 263.281 308.465 263.281C306.151 263.281 304.276 265.158 304.276 267.474C304.276 269.789 306.151 271.666 308.465 271.666Z" fill="#C4CEF0"/>
<path d="M308.151 232.611C310.465 232.611 312.34 230.734 312.34 228.418C312.34 226.103 310.465 224.226 308.151 224.226C305.838 224.226 303.963 226.103 303.963 228.418C303.963 230.734 305.838 232.611 308.151 232.611Z" fill="#C4CEF0"/>
<path d="M301.188 244.062C301.208 242.977 301.602 241.932 302.302 241.104C302.961 240.285 303.786 239.615 304.722 239.138C305.658 238.661 306.685 238.388 307.734 238.336C312.146 238.218 314.081 241.93 314.351 243.45C314.759 245.743 314.669 257.29 314.669 257.29H301.036L301.107 253.857L301.188 244.062Z" fill="white"/>
<path d="M336.229 259.739L337.652 331.047C337.652 331.047 353.269 331.208 362.827 332.4C371.19 333.444 391.289 332.48 391.289 332.48L392.238 259.982L336.262 259.606" fill="#FF7412"/>
<path d="M335.831 259.739L392.215 259.977L391.959 246.488H375.256C375.256 246.488 373.183 238.417 365.408 238.417C355.868 238.417 354.279 246.916 354.279 246.916L335.779 246.721L335.831 259.739Z" fill="#FF7412"/>
<path d="M351.765 267.407H341.794V278.232H351.765V267.407Z" fill="white"/>
<path d="M369.782 267.25H359.81V278.075H369.782V267.25Z" fill="white"/>
<path d="M387.566 267.407H377.594V278.232H387.566V267.407Z" fill="white"/>
<path d="M387.718 287.77H377.747V298.595H387.718V287.77Z" fill="white"/>
<path d="M387.86 311.471H377.889V322.296H387.86V311.471Z" fill="white"/>
<path d="M369.796 311.035H359.825V321.859H369.796V311.035Z" fill="white"/>
<path d="M351.77 310.811H341.799V321.636H351.77V310.811Z" fill="white"/>
<path d="M369.393 287.462H359.421V298.287H369.393V287.462Z" fill="white"/>
<path d="M369.393 287.462H359.421V298.287H369.393V287.462Z" fill="white"/>
<path d="M351.841 287.927H341.87V298.752H351.841V287.927Z" fill="white"/>
<path d="M364.881 254.308C367.91 254.308 370.365 251.851 370.365 248.819C370.365 245.788 367.91 243.331 364.881 243.331C361.853 243.331 359.398 245.788 359.398 248.819C359.398 251.851 361.853 254.308 364.881 254.308Z" fill="white"/>
<path d="M416.441 198.631H425.202L425.065 194.358L416.293 194.263L416.441 198.631Z" fill="white"/>
<path d="M391.987 238.769L390.938 332.59C390.938 332.59 409.695 327.842 421.573 321.936C432.83 316.348 438.176 304.046 439.457 301.644C439.592 301.386 439.706 301.118 439.799 300.841L446.307 281.48C446.488 280.948 446.623 280.402 446.71 279.847L449.68 260.742L451.103 251.996C451.189 251.455 451.189 250.904 451.103 250.363L449.533 239.96C449.514 239.844 449.468 239.733 449.398 239.638C449.328 239.543 449.236 239.466 449.13 239.414L440.335 235.094L425.544 208.886L425.179 198.64H416.417L416.137 208.886L400.573 234.619L391.987 238.769Z" fill="#C4CEF0"/>
<path d="M420.25 246.004H414.5V253.164H420.25V246.004Z" fill="white"/>
<path d="M428.423 246.128H422.29V253.159H428.423V246.128Z" fill="white"/>
<path d="M420.122 254.503H414.373V261.663H420.122V254.503Z" fill="white"/>
<path d="M428.295 254.631H422.162V261.662H428.295V254.631Z" fill="white"/>
<path d="M420.373 271.557H414.624V278.717H420.373V271.557Z" fill="white"/>
<path d="M406.825 271.519H401.076V278.679H406.825V271.519Z" fill="white"/>
<path d="M440.828 271.837H435.079V278.997H440.828V271.837Z" fill="white"/>
<path d="M436.929 306.629L435.202 309.117L435.42 302.84L438.912 302.698L436.929 306.629Z" fill="white"/>
<path d="M406.891 303.581H401.142V310.74H406.891V303.581Z" fill="white"/>
<path d="M428.547 271.685H422.413V278.717H428.547V271.685Z" fill="white"/>
<path d="M420.245 280.06H414.496V287.22H420.245V280.06Z" fill="white"/>
<path d="M428.419 280.188H422.285V287.22H428.419V280.188Z" fill="white"/>
<path d="M420.269 302.588H414.52V309.748H420.269V302.588Z" fill="white"/>
<path d="M428.442 302.717H422.309V309.748H428.442V302.717Z" fill="white"/>
<path d="M420.141 311.092H414.391V318.252H420.141V311.092Z" fill="white"/>
<path d="M427.83 317.753L427.181 318.252H422.181V311.22H428.314V317.288L427.83 317.753Z" fill="white"/>
<path d="M404.268 257.978C406.487 257.978 408.286 256.178 408.286 253.957C408.286 251.736 406.487 249.936 404.268 249.936C402.049 249.936 400.25 251.736 400.25 253.957C400.25 256.178 402.049 257.978 404.268 257.978Z" fill="white"/>
<path d="M436.853 258.876C439.072 258.876 440.871 257.075 440.871 254.854C440.871 252.633 439.072 250.833 436.853 250.833C434.634 250.833 432.835 252.633 432.835 254.854C432.835 257.075 434.634 258.876 436.853 258.876Z" fill="white"/>
<path d="M391.982 238.769H400.744L400.611 234.491L391.84 234.401L391.982 238.769Z" fill="white"/>
<path d="M440.719 239.571H449.481L448.911 236.888L448.541 235.284L440.572 235.203L440.719 239.571Z" fill="white"/>
<path d="M421.142 236.699C424.956 236.699 428.049 233.604 428.049 229.786C428.049 225.968 424.956 222.873 421.142 222.873C417.327 222.873 414.235 225.968 414.235 229.786C414.235 233.604 417.327 236.699 421.142 236.699Z" fill="white"/>
<path d="M291.358 60.4749C291.358 60.4749 264.636 42.6735 165.904 101.658L196.567 161.208C196.567 161.208 285.99 120.255 301.304 79.7903L291.358 60.4749Z" fill="#F1F1F1"/>
<path d="M172.578 114.288L166.137 117.604L164.996 115.388L159.902 118.011L157.196 112.757L154.798 113.991L180.081 163.093L182.928 161.627L179.97 155.882L184.091 153.76L182.786 151.226L189.751 147.639L172.578 114.288Z" fill="#F1F1F1"/>
<path d="M223.732 108.523C229.312 119.361 242.606 123.631 253.425 118.06C264.245 112.489 268.491 99.1871 262.911 88.3493C257.33 77.5116 244.036 73.2419 233.217 78.8127C222.398 84.3835 218.151 97.6853 223.732 108.523Z" fill="url(#paint0_linear)"/>
<path d="M226.663 107.014C231.288 115.995 242.305 119.534 251.271 114.917C260.237 110.3 263.756 99.2769 259.132 90.2955C254.507 81.3141 243.49 77.7757 234.524 82.3924C225.558 87.009 222.039 98.0324 226.663 107.014Z" fill="white"/>
<path d="M231.299 104.833C234.627 111.297 242.555 113.843 249.008 110.521C255.46 107.199 257.993 99.2656 254.664 92.8022C251.336 86.3388 243.408 83.7924 236.956 87.1148C230.503 90.4371 227.971 98.37 231.299 104.833Z" fill="url(#paint1_linear)"/>
<path d="M176.836 100.584L161.185 70.1885C160.78 69.4084 160.55 68.5498 160.509 67.6722C160.469 66.7947 160.619 65.9191 160.95 65.106C162.403 61.5732 166.154 56.5712 175.355 60.219C188.826 65.5585 209.923 81.7056 209.923 81.7056L176.836 100.584Z" fill="url(#paint2_linear)"/>
<path d="M205.223 150.147L220.324 179.474C220.716 180.233 221.272 180.896 221.951 181.414C222.63 181.933 223.415 182.294 224.25 182.472C227.931 183.266 234.136 183.031 236.631 173.655C240.284 159.927 239.779 134.128 239.779 134.128L205.223 150.147Z" fill="url(#paint3_linear)"/>
<path d="M206.565 119.498L205.566 117.558C204.765 116.002 202.856 115.389 201.303 116.189L175.335 129.56C173.782 130.36 173.172 132.27 173.973 133.826L174.972 135.766C175.773 137.322 177.682 137.935 179.235 137.135L205.203 123.764C206.756 122.964 207.366 121.054 206.565 119.498Z" fill="url(#paint4_linear)"/>
<path d="M282.891 58.4221L297.38 86.5604C297.438 86.6615 297.521 86.7457 297.621 86.8046C297.722 86.8635 297.836 86.895 297.952 86.896C298.068 86.8969 298.183 86.8673 298.284 86.81C298.385 86.7528 298.469 86.6699 298.528 86.5697L313.395 62.2274C313.454 62.1384 313.488 62.0356 313.496 61.929C313.503 61.8224 313.483 61.7157 313.437 61.6192C313.391 61.5228 313.32 61.4399 313.233 61.3786C313.145 61.3173 313.044 61.2798 312.937 61.2696L283.582 57.4736C283.463 57.4563 283.341 57.4719 283.23 57.5187C283.119 57.5655 283.022 57.6417 282.951 57.7393C282.88 57.8368 282.837 57.9519 282.827 58.0722C282.816 58.1925 282.838 58.3135 282.891 58.4221Z" fill="url(#paint5_linear)"/>
<path d="M248.975 107.288C248.975 107.288 244.836 111.805 235.094 105.779L248.975 107.288Z" fill="url(#paint6_linear)"/>
<defs>
<linearGradient id="paint0_linear" x1="233.218" y1="78.8158" x2="253.425" y2="118.06" gradientUnits="userSpaceOnUse">
<stop stop-color="#8CC73D"/>
<stop offset="1" stop-color="#729642"/>
</linearGradient>
<linearGradient id="paint1_linear" x1="-3081.32" y1="6565" x2="-2184.05" y2="8307.58" gradientUnits="userSpaceOnUse">
<stop stop-color="#8CC73D"/>
<stop offset="1" stop-color="#729642"/>
</linearGradient>
<linearGradient id="paint2_linear" x1="-14574.5" y1="14650.3" x2="-12354.1" y2="18962.4" gradientUnits="userSpaceOnUse">
<stop stop-color="#8CC73D"/>
<stop offset="1" stop-color="#729642"/>
</linearGradient>
<linearGradient id="paint3_linear" x1="-13980.1" y1="15194.8" x2="-16055.1" y2="11165" gradientUnits="userSpaceOnUse">
<stop stop-color="#8CC73D"/>
<stop offset="1" stop-color="#729642"/>
</linearGradient>
<linearGradient id="paint4_linear" x1="-11429.7" y1="8137.64" x2="-11523.7" y2="7955.17" gradientUnits="userSpaceOnUse">
<stop stop-color="#8CC73D"/>
<stop offset="1" stop-color="#729642"/>
</linearGradient>
<linearGradient id="paint5_linear" x1="-161.643" y1="11285.1" x2="1241.63" y2="14010.3" gradientUnits="userSpaceOnUse">
<stop stop-color="#8CC73D"/>
<stop offset="1" stop-color="#729642"/>
</linearGradient>
<linearGradient id="paint6_linear" x1="249.269" y1="114.576" x2="237.128" y2="101.086" gradientUnits="userSpaceOnUse">
<stop stop-color="white" stop-opacity="0"/>
<stop offset="1" stop-color="white"/>
</linearGradient>
</defs>
</svg>
