<svg width="80" height="108" viewBox="0 0 80 108" fill="none" xmlns="http://www.w3.org/2000/svg">
<path d="M64.6633 93.8641C65.4709 93.993 66.2956 93.7954 66.9571 93.31C67.61 92.8375 68.0653 92.1073 68.1856 91.2955L68.9115 86.4717C69.0575 85.5009 69.6632 84.6762 70.5395 84.2338L74.9079 82.0517C75.6467 81.678 76.2008 81.038 76.45 80.2605C76.7077 79.4744 76.6261 78.6325 76.2567 77.9023L74.0059 73.551C73.5635 72.7005 73.5635 71.6653 74.0059 70.8062L76.2567 66.4593C76.6261 65.7291 76.7034 64.8872 76.45 64.1011C76.1965 63.3193 75.6424 62.6836 74.9079 62.3099L70.5395 60.1278C69.6632 59.6854 69.0575 58.8607 68.9115 57.8899L68.1856 53.0661C68.0653 52.2543 67.61 51.5284 66.9571 51.0559C66.2956 50.5662 65.4709 50.3686 64.6633 50.5018L59.831 51.3093C58.8731 51.4682 57.9023 51.1504 57.215 50.4588L53.783 46.9709C53.2031 46.391 52.4256 46.0646 51.6009 46.0646C50.7891 46.0646 49.9944 46.3953 49.4188 46.9709L45.9868 50.4588C45.3038 51.1547 44.3288 51.4682 43.3709 51.3093L38.5471 50.5146C37.7396 50.3815 36.9148 50.5791 36.2491 51.0688C35.5919 51.5412 35.1408 52.2672 35.0206 53.079L34.2989 57.9028C34.1486 58.8735 33.5472 59.6983 32.671 60.1407L28.2982 62.3228C27.5723 62.6965 27.0096 63.3322 26.7604 64.114C26.507 64.9 26.58 65.7419 26.9494 66.4722L29.2003 70.8191C29.647 71.6739 29.647 72.7091 29.2003 73.5639L26.9494 77.9152C26.58 78.6454 26.507 79.4873 26.7604 80.2734C27.0139 81.0509 27.568 81.6909 28.2982 82.0646L32.671 84.2467C33.5472 84.6891 34.1486 85.5138 34.2989 86.4846L35.0206 91.3083C35.1408 92.1159 35.5919 92.8461 36.2491 93.3229C36.9105 93.8083 37.7353 94.0059 38.5471 93.877L43.3709 93.0824C44.3288 92.9148 45.3038 93.237 45.9868 93.9286L49.4188 97.4079C49.9987 98.0006 50.7848 98.3271 51.6009 98.3271C52.4213 98.3271 53.2074 98.0006 53.783 97.4079L57.215 93.9286C57.9023 93.237 58.8774 92.9148 59.831 93.0824L64.6633 93.8641ZM51.5966 90.3419C41.3305 90.3419 32.9845 81.9959 32.9845 71.7341C32.9845 61.4723 41.3348 53.1177 51.5966 53.1177C61.8627 53.1177 70.2087 61.4766 70.2087 71.7341C70.2087 81.9916 61.867 90.3419 51.5966 90.3419Z" fill="url(#paint0_linear)"/>
<path d="M51.6008 55.8019C42.8338 55.8019 35.6948 62.9323 35.6948 71.7036C35.6948 80.4748 42.8381 87.6052 51.6008 87.6052C60.3764 87.6052 67.5068 80.4748 67.5068 71.7036C67.5068 62.9323 60.3764 55.8019 51.6008 55.8019Z" fill="url(#paint1_linear)"/>
<path d="M79.3181 97.3472L70.6628 88.6876L70.2247 91.6085C70.0185 92.953 69.2711 94.1944 68.1672 94.989C67.0719 95.788 65.7016 96.1273 64.3357 95.9039L59.499 95.1136C59.0995 95.0878 58.859 95.1995 58.6829 95.3799L57.8582 96.2089L69.1637 107.51C69.6019 107.948 70.2333 108.103 70.8175 107.927C71.4017 107.742 71.8312 107.257 71.9515 106.651L72.9695 101.166L78.4719 100.135C79.0733 100.023 79.5587 99.5894 79.7348 99.001C79.9152 98.4125 79.752 97.7725 79.3181 97.3472Z" fill="url(#paint2_linear)"/>
<path d="M43.8565 95.0921L38.8738 95.9039C37.4778 96.1187 36.1247 95.7837 35.0251 94.9761C33.9298 94.1858 33.1824 92.9487 32.9762 91.5956L32.5381 88.6876L23.8871 97.3472C23.4575 97.7768 23.2986 98.4125 23.4747 98.9967C23.6594 99.5851 24.1491 100.01 24.7419 100.131L30.24 101.157L31.2709 106.651C31.3826 107.257 31.8164 107.742 32.4006 107.927C32.9805 108.103 33.6162 107.948 34.0458 107.514L45.347 96.2089L44.5223 95.3756C44.3419 95.1909 44.1014 95.0921 43.8565 95.0921Z" fill="url(#paint3_linear)"/>
<path d="M56.5314 18.114H16.004C14.5436 18.114 13.3623 19.2953 13.3623 20.7557C13.358 22.2247 14.5393 23.4017 16.004 23.4017H56.5314C57.9875 23.4017 59.1731 22.2247 59.1731 20.7643C59.1731 19.3038 57.9832 18.114 56.5314 18.114Z" fill="url(#paint4_linear)"/>
<path d="M56.5314 31.662H16.004C14.5436 31.662 13.3623 32.8432 13.3623 34.2951C13.358 35.7555 14.5393 36.9411 16.004 36.9411H56.5314C57.9875 36.9411 59.1731 35.7641 59.1731 34.2994C59.1731 32.8432 57.9832 31.662 56.5314 31.662Z" fill="url(#paint5_linear)"/>
<path d="M28.4052 86.8364L26.4078 85.8399C25.8966 85.5821 25.4327 85.2514 25.0032 84.882H7.94173C6.77337 84.882 5.82408 83.9284 5.82408 82.7686V7.74896C5.82408 6.5763 6.77337 5.62701 7.94173 5.62701H64.7187C65.8828 5.62701 66.8364 6.5763 66.8364 7.74896V46.4379C67.7814 46.6613 68.6834 47.0736 69.4738 47.6621C71.0201 48.766 72.0897 50.5314 72.3775 52.4558L72.4634 7.75325C72.472 3.4793 68.9927 0 64.7187 0H7.94173C3.66777 0 0.188477 3.48359 0.188477 7.75325V82.7772C0.188477 87.0555 3.67207 90.5348 7.94173 90.5348H24.7154L28.4052 86.8364Z" fill="url(#paint6_linear)"/>
<defs>
<linearGradient id="paint0_linear" x1="27.2866" y1="47.0324" x2="79.9259" y2="93.3372" gradientUnits="userSpaceOnUse">
<stop stop-color="#FF7412"/>
<stop offset="1" stop-color="#FFA464"/>
</linearGradient>
<linearGradient id="paint1_linear" x1="36.1247" y1="56.3908" x2="68.3089" y2="85.9979" gradientUnits="userSpaceOnUse">
<stop stop-color="#FF7412"/>
<stop offset="1" stop-color="#FFA464"/>
</linearGradient>
<linearGradient id="paint2_linear" x1="58.1548" y1="89.0452" x2="77.7453" y2="109.524" gradientUnits="userSpaceOnUse">
<stop stop-color="#FF7412"/>
<stop offset="1" stop-color="#FFA464"/>
</linearGradient>
<linearGradient id="paint3_linear" x1="23.7006" y1="89.0452" x2="43.2914" y2="109.519" gradientUnits="userSpaceOnUse">
<stop stop-color="#FF7412"/>
<stop offset="1" stop-color="#FFA464"/>
</linearGradient>
<linearGradient id="paint4_linear" x1="13.9814" y1="18.2119" x2="15.3083" y2="28.7847" gradientUnits="userSpaceOnUse">
<stop stop-color="#FF7412"/>
<stop offset="1" stop-color="#FFA464"/>
</linearGradient>
<linearGradient id="paint5_linear" x1="13.9814" y1="31.7597" x2="15.3041" y2="42.3158" gradientUnits="userSpaceOnUse">
<stop stop-color="#FF7412"/>
<stop offset="1" stop-color="#FFA464"/>
</linearGradient>
<linearGradient id="paint6_linear" x1="1.16518" y1="1.67657" x2="88.8824" y2="66.0775" gradientUnits="userSpaceOnUse">
<stop stop-color="#FF7412"/>
<stop offset="1" stop-color="#FFA464"/>
</linearGradient>
</defs>
</svg>
