<svg width="251" height="251" viewBox="0 0 251 251" fill="none" xmlns="http://www.w3.org/2000/svg">
<g filter="url(#filter0_d)">
<circle cx="45" cy="45" r="37" fill="white"/>
</g>
<path d="M55.1762 56.384C57.3362 56.384 58.4162 57.302 58.4162 59.138C58.4162 61.046 57.3362 62 55.1762 62H34.6562C33.7202 62 32.9822 61.73 32.4422 61.19C31.9022 60.614 31.6322 59.912 31.6322 59.084C31.6322 58.004 32.0462 57.032 32.8742 56.168L45.1862 42.938C46.6982 41.282 47.7962 39.77 48.4802 38.402C49.2002 36.998 49.5602 35.612 49.5602 34.244C49.5602 32.552 49.0742 31.256 48.1022 30.356C47.1302 29.456 45.7442 29.006 43.9442 29.006C42.4682 29.006 41.0282 29.294 39.6242 29.87C38.2562 30.41 36.8702 31.166 35.4662 32.138C35.1062 32.39 34.7462 32.606 34.3862 32.786C34.0262 32.93 33.6662 33.002 33.3062 33.002C32.6942 33.002 32.1542 32.714 31.6862 32.138C31.2542 31.562 31.0382 30.878 31.0382 30.086C31.0382 29.546 31.1282 29.078 31.3082 28.682C31.5242 28.286 31.8482 27.908 32.2802 27.548C33.8642 26.288 35.7182 25.298 37.8422 24.578C39.9662 23.822 42.0902 23.444 44.2142 23.444C47.9222 23.444 50.8742 24.38 53.0702 26.252C55.3022 28.124 56.4182 30.644 56.4182 33.812C56.4182 36.008 55.9502 38.078 55.0142 40.022C54.0782 41.93 52.4942 44.072 50.2622 46.448L40.9202 56.384H55.1762Z" fill="#001B55" fill-opacity="0.8"/>
<g filter="url(#filter1_d)">
<circle cx="138.5" cy="138.5" r="104.5" fill="white"/>
</g>
<path d="M178.012 175.218H99.1885C91.9193 175.218 86.0513 169.35 86.0513 162.081V116.188C86.0513 108.919 91.9193 103.051 99.1885 103.051H178.012C185.282 103.051 191.15 108.919 191.15 116.188V162.169C191.15 169.35 185.282 175.218 178.012 175.218Z" fill="white"/>
<path d="M191.15 127.924H86.0513V139.748H191.15V127.924Z" fill="white"/>
<circle cx="159.5" cy="156.5" r="9.5" fill="#FFF0E5"/>
<circle cx="175.5" cy="156.5" r="9.5" fill="#FFF0E5"/>
<rect x="86" y="116" width="105" height="12" fill="#FFF0E5"/>
<path d="M178.012 176.357H99.1883C91.3059 176.357 85 169.964 85 162.169V116.188C85 108.306 91.3935 102 99.1883 102H178.012C185.894 102 192.2 108.393 192.2 116.188V162.169C192.2 169.964 185.894 176.357 178.012 176.357ZM99.1883 104.102C92.532 104.102 87.102 109.532 87.102 116.188V162.169C87.102 168.825 92.532 174.255 99.1883 174.255H178.012C184.668 174.255 190.098 168.825 190.098 162.169V116.188C190.098 109.532 184.668 104.102 178.012 104.102H99.1883Z" fill="url(#paint0_linear)"/>
<path d="M191.149 140.886H86.051C85.4379 140.886 85 140.361 85 139.835C85 139.31 85.5255 138.784 86.051 138.784H191.149C191.762 138.784 192.2 139.31 192.2 139.835C192.2 140.361 191.762 140.886 191.149 140.886Z" fill="url(#paint1_linear)"/>
<path d="M141.228 134.931H92.6198C92.0068 134.931 91.5688 134.405 91.5688 133.88C91.5688 133.354 92.0943 132.829 92.6198 132.829H141.228C141.841 132.829 142.279 133.354 142.279 133.88C142.279 134.405 141.841 134.931 141.228 134.931Z" fill="url(#paint2_linear)"/>
<path d="M168.816 134.931H155.678C155.065 134.931 154.627 134.405 154.627 133.88C154.627 133.354 155.153 132.829 155.678 132.829H168.816C169.429 132.829 169.867 133.354 169.867 133.88C169.867 134.405 169.429 134.931 168.816 134.931Z" fill="url(#paint3_linear)"/>
<path d="M133.345 151.396H101.816C101.203 151.396 100.765 150.871 100.765 150.345C100.765 149.82 101.29 149.294 101.816 149.294H133.345C133.958 149.294 134.396 149.82 134.396 150.345C134.396 150.871 133.958 151.396 133.345 151.396Z" fill="url(#paint4_linear)"/>
<path d="M133.345 157.965H101.816C101.203 157.965 100.765 157.439 100.765 156.914C100.765 156.388 101.203 155.775 101.816 155.775H133.345C133.958 155.775 134.396 156.301 134.396 156.826C134.396 157.352 133.958 157.965 133.345 157.965Z" fill="url(#paint5_linear)"/>
<path d="M133.345 164.533H101.816C101.203 164.533 100.765 164.008 100.765 163.482C100.765 162.957 101.29 162.431 101.816 162.431H133.345C133.958 162.431 134.396 162.957 134.396 163.482C134.396 164.008 133.958 164.533 133.345 164.533Z" fill="url(#paint6_linear)"/>
<path d="M191.149 129.063H86.051C85.4379 129.063 85 128.537 85 128.012C85 127.486 85.4379 126.873 86.051 126.873H191.149C191.762 126.873 192.2 127.399 192.2 127.924C192.2 128.45 191.762 129.063 191.149 129.063Z" fill="url(#paint7_linear)"/>
<path d="M191.149 129.063H86.051C85.4379 129.063 85 128.537 85 128.012C85 127.486 85.4379 126.873 86.051 126.873H191.149C191.762 126.873 192.2 127.399 192.2 127.924C192.2 128.45 191.762 129.063 191.149 129.063Z" fill="url(#paint8_linear)"/>
<path d="M191.149 117.239H86.051C85.4379 117.239 85 116.714 85 116.188C85 115.663 85.5255 115.137 86.051 115.137H191.149C191.762 115.137 192.2 115.663 192.2 116.188C192.2 116.714 191.762 117.239 191.149 117.239Z" fill="url(#paint9_linear)"/>
<path d="M174.071 167.862C168.028 167.862 163.123 162.957 163.123 156.914C163.123 150.871 168.028 145.966 174.071 145.966C180.114 145.966 185.019 150.871 185.019 156.826C185.019 162.782 180.114 167.862 174.071 167.862ZM174.071 148.068C169.254 148.068 165.313 152.009 165.313 156.826C165.313 161.643 169.254 165.584 174.071 165.584C178.888 165.584 182.829 161.643 182.829 156.826C182.829 152.009 178.888 148.068 174.071 148.068Z" fill="url(#paint10_linear)"/>
<path d="M159.62 167.862C153.577 167.862 148.672 162.957 148.672 156.914C148.672 150.871 153.577 145.966 159.62 145.966C165.663 145.966 170.568 150.871 170.568 156.914C170.568 162.957 165.663 167.862 159.62 167.862ZM159.62 148.068C154.803 148.068 150.862 152.009 150.862 156.826C150.862 161.643 154.803 165.584 159.62 165.584C164.437 165.584 168.378 161.643 168.378 156.826C168.378 152.009 164.437 148.068 159.62 148.068Z" fill="url(#paint11_linear)"/>
<defs>
<filter id="filter0_d" x="0" y="0" width="90" height="90" filterUnits="userSpaceOnUse" color-interpolation-filters="sRGB">
<feFlood flood-opacity="0" result="BackgroundImageFix"/>
<feColorMatrix in="SourceAlpha" type="matrix" values="0 0 0 0 0 0 0 0 0 0 0 0 0 0 0 0 0 0 127 0"/>
<feOffset/>
<feGaussianBlur stdDeviation="4"/>
<feColorMatrix type="matrix" values="0 0 0 0 0 0 0 0 0 0 0 0 0 0 0 0 0 0 0.04 0"/>
<feBlend mode="normal" in2="BackgroundImageFix" result="effect1_dropShadow"/>
<feBlend mode="normal" in="SourceGraphic" in2="effect1_dropShadow" result="shape"/>
</filter>
<filter id="filter1_d" x="26" y="26" width="225" height="225" filterUnits="userSpaceOnUse" color-interpolation-filters="sRGB">
<feFlood flood-opacity="0" result="BackgroundImageFix"/>
<feColorMatrix in="SourceAlpha" type="matrix" values="0 0 0 0 0 0 0 0 0 0 0 0 0 0 0 0 0 0 127 0"/>
<feOffset/>
<feGaussianBlur stdDeviation="4"/>
<feColorMatrix type="matrix" values="0 0 0 0 0 0 0 0 0 0 0 0 0 0 0 0 0 0 0.04 0"/>
<feBlend mode="normal" in2="BackgroundImageFix" result="effect1_dropShadow"/>
<feBlend mode="normal" in="SourceGraphic" in2="effect1_dropShadow" result="shape"/>
</filter>
<linearGradient id="paint0_linear" x1="86.4487" y1="103.377" x2="159.05" y2="199.639" gradientUnits="userSpaceOnUse">
<stop stop-color="#FF7412"/>
<stop offset="1" stop-color="#FFA464"/>
</linearGradient>
<linearGradient id="paint1_linear" x1="86.4487" y1="138.823" x2="86.5397" y2="143.09" gradientUnits="userSpaceOnUse">
<stop stop-color="#FF7412"/>
<stop offset="1" stop-color="#FFA464"/>
</linearGradient>
<linearGradient id="paint2_linear" x1="92.2541" y1="132.868" x2="92.4462" y2="137.128" gradientUnits="userSpaceOnUse">
<stop stop-color="#FF7412"/>
<stop offset="1" stop-color="#FFA464"/>
</linearGradient>
<linearGradient id="paint3_linear" x1="154.833" y1="132.868" x2="155.46" y2="137.043" gradientUnits="userSpaceOnUse">
<stop stop-color="#FF7412"/>
<stop offset="1" stop-color="#FFA464"/>
</linearGradient>
<linearGradient id="paint4_linear" x1="101.219" y1="149.333" x2="101.508" y2="153.583" gradientUnits="userSpaceOnUse">
<stop stop-color="#FF7412"/>
<stop offset="1" stop-color="#FFA464"/>
</linearGradient>
<linearGradient id="paint5_linear" x1="101.219" y1="155.816" x2="101.532" y2="160.241" gradientUnits="userSpaceOnUse">
<stop stop-color="#FF7412"/>
<stop offset="1" stop-color="#FFA464"/>
</linearGradient>
<linearGradient id="paint6_linear" x1="101.219" y1="162.47" x2="101.508" y2="166.72" gradientUnits="userSpaceOnUse">
<stop stop-color="#FF7412"/>
<stop offset="1" stop-color="#FFA464"/>
</linearGradient>
<linearGradient id="paint7_linear" x1="86.4487" y1="126.914" x2="86.5474" y2="131.359" gradientUnits="userSpaceOnUse">
<stop stop-color="#FF7412"/>
<stop offset="1" stop-color="#FFA464"/>
</linearGradient>
<linearGradient id="paint8_linear" x1="86.4487" y1="126.914" x2="86.5474" y2="131.359" gradientUnits="userSpaceOnUse">
<stop stop-color="#FF7412"/>
<stop offset="1" stop-color="#FFA464"/>
</linearGradient>
<linearGradient id="paint9_linear" x1="86.4487" y1="115.176" x2="86.5397" y2="119.443" gradientUnits="userSpaceOnUse">
<stop stop-color="#FF7412"/>
<stop offset="1" stop-color="#FFA464"/>
</linearGradient>
<linearGradient id="paint10_linear" x1="163.419" y1="146.372" x2="185.576" y2="166.749" gradientUnits="userSpaceOnUse">
<stop stop-color="#FF7412"/>
<stop offset="1" stop-color="#FFA464"/>
</linearGradient>
<linearGradient id="paint11_linear" x1="148.968" y1="146.372" x2="171.125" y2="166.749" gradientUnits="userSpaceOnUse">
<stop stop-color="#FF7412"/>
<stop offset="1" stop-color="#FFA464"/>
</linearGradient>
</defs>
</svg>
