<svg width="105" height="64" viewBox="0 0 105 64" fill="none" xmlns="http://www.w3.org/2000/svg">
<path d="M104.959 7.22887C104.917 6.98915 104.827 6.76038 104.694 6.55625C104.561 6.35211 104.387 6.17682 104.185 6.04084C103.982 5.90487 103.754 5.81102 103.513 5.76491C103.273 5.71881 103.026 5.72139 102.787 5.7725L84.383 9.3908C84.2805 9.41578 84.1802 9.44906 84.0831 9.49031C83.5966 9.53598 83.1138 9.61456 82.638 9.72549L77.6939 11.2H77.0486C76.3579 11.2 75.6035 10.6482 73.804 9.2913L72.7406 8.48623C70.2903 6.79319 67.741 5.24665 65.1063 3.8548C63.5158 2.95023 62.0071 2.11802 61.1527 1.55718C58.2081 -0.396699 52.9094 -0.251967 50.3737 0.580242C46.9747 2.02797 43.8299 4.00678 41.058 6.44189C38.3382 6.62104 35.6293 6.93805 32.9419 7.39169C25.9347 8.79378 23.0082 8.17867 23.0082 8.17867L13.2107 5.94437L5.78542 2.32607C5.57059 2.22154 5.33717 2.16014 5.09849 2.14539C4.85982 2.13064 4.62056 2.16282 4.39439 2.24009C4.16821 2.31737 3.95954 2.43823 3.78029 2.59578C3.60104 2.75332 3.45472 2.94446 3.34969 3.15828C3.24466 3.3721 3.18298 3.60442 3.16816 3.84197C3.15333 4.07952 3.18567 4.31765 3.26331 4.54277C3.34095 4.76788 3.46239 4.97557 3.62067 5.15398C3.77896 5.33238 3.971 5.47801 4.18584 5.58254L10.4387 8.63096C6.9124 21.6116 0.704932 44.3164 0.132355 46.0261C0.00737075 46.4016 -0.0297613 46.8005 0.0237933 47.1924C0.077348 47.5843 0.220173 47.9589 0.441365 48.2875C1.83191 50.549 7.53951 51.734 10.8205 52.2315C10.9111 52.2404 11.0025 52.2404 11.0931 52.2315C11.402 52.2321 11.706 52.1543 11.9763 52.0056C12.2467 51.8568 12.4745 51.6419 12.6382 51.3812L14.6558 48.1699C14.8779 48.4024 15.1179 48.6172 15.3738 48.8122C16.2304 49.4365 17.2428 49.8147 18.3005 49.9056C19.3583 49.9965 20.4208 49.7966 21.3722 49.3278C21.4471 49.6942 21.5598 50.0519 21.7085 50.3952C22.2804 51.641 23.1371 52.7365 24.2102 53.5941C25.2833 54.4516 26.543 55.0475 27.8887 55.3342C29.3214 55.6646 30.8222 55.538 32.1785 54.9723C32.5528 56.3571 33.3083 57.6103 34.3598 58.5906C35.3037 59.6359 36.5279 60.3912 37.8883 60.7678C39.2488 61.1443 40.6889 61.1265 42.0396 60.7164C42.294 61.3747 42.6879 61.9707 43.1944 62.464C43.701 62.9572 44.3083 63.3361 44.9752 63.5748C45.794 63.8556 46.6539 63.9993 47.52 64C49.4745 63.9413 51.3605 63.2702 52.9095 62.0823C53.3333 62.666 53.891 63.1404 54.5363 63.4663C55.2433 63.8211 56.0258 64.0011 56.8175 63.991C57.6168 63.9815 58.409 63.8409 59.1624 63.5748C59.988 63.2649 60.7425 62.7929 61.3811 62.1868C62.0197 61.5808 62.5293 60.8531 62.8796 60.047C64.9409 60.2796 67.0231 59.8518 68.8235 58.8258C70.1631 57.8922 71.1287 56.518 71.55 54.9452C72.6075 55.148 73.698 55.1006 74.7336 54.8067C75.7693 54.5129 76.721 53.9809 77.5121 53.2536C78.1942 52.6632 78.738 51.9313 79.1055 51.1093C79.4729 50.2873 79.6549 49.3951 79.6388 48.4956C80.2119 48.4292 80.7777 48.3111 81.3293 48.1428C82.4417 50.4579 84.3504 52.2998 86.7097 53.3351C88.3547 54.0879 90.1432 54.4796 91.9538 54.4839C93.4406 54.517 94.915 54.2074 96.2617 53.5793C103.887 49.7891 105.196 39.3594 100.27 21.7111C98.7338 16.1932 96.0345 13.1086 93.208 11.408L103.496 9.3908C103.737 9.34877 103.967 9.25881 104.172 9.1263C104.377 8.99378 104.553 8.82145 104.69 8.6196C104.826 8.41776 104.921 8.19055 104.967 7.95159C105.013 7.71262 105.011 7.46681 104.959 7.22887ZM51.5189 4.03572C53.5547 3.35729 57.4719 3.48393 59.1442 4.58751C60.053 5.22071 61.5981 6.06197 63.334 7.02986C65.8388 8.34802 68.2663 9.80674 70.6048 11.399L71.6227 12.1588C73.804 13.8142 75.1309 14.8092 77.0758 14.8092C77.4485 14.8092 86.2189 14.9178 88.3456 24.0992C90.6541 34.0495 90.3815 42.6158 89.4635 43.9365C89.1659 44.3428 88.7853 44.6817 88.3467 44.9312C87.9081 45.1806 87.4215 45.3349 86.9187 45.3838C86.4002 45.4262 85.8782 45.3834 85.3737 45.2572C86.1403 43.9537 86.4657 42.4394 86.3021 40.9378C86.1385 39.4362 85.4944 38.0267 84.4648 36.917C82.8743 35.3431 61.38 17.0164 58.1899 14.6102C54.0637 11.5437 50.7918 13.0091 48.4015 14.5559C46.6475 15.7138 43.9118 19.902 43.212 21.3041C42.7121 22.0639 39.522 24.2801 37.1499 24.2077C36.6762 24.2091 36.2116 24.0775 35.8097 23.8278C35.4078 23.5782 35.0848 23.2208 34.8778 22.7966C34.8778 22.3986 35.7867 21.1684 36.441 20.2728C37.2489 19.2178 38.0012 18.1218 38.695 16.9892C39.4726 15.8083 40.0842 14.527 40.5127 13.181C40.7392 12.3888 41.1397 11.6565 41.6851 11.0371C43.6755 8.35959 49.5194 4.69606 51.5189 4.03572ZM10.1661 48.4232C7.96766 48.0944 5.82626 47.461 3.80412 46.5417C5.18558 41.8922 12.0565 16.6907 13.9287 9.81595L20.7088 11.3718C20.4361 15.4515 19.709 26.6772 18.5184 30.8292C17.5603 34.0769 16.3446 37.2438 14.883 40.3001C14.2465 41.1707 13.7724 42.1481 13.4834 43.1857C13.4834 43.24 13.4016 43.2852 13.3653 43.3485L10.1661 48.4232ZM17.5187 45.9085C17.3566 45.8096 17.217 45.678 17.109 45.5222C17.001 45.3664 16.927 45.1899 16.8916 45.0039C16.8743 44.3685 17.0382 43.7413 17.3642 43.1948C18.1542 43.3207 18.9324 43.5113 19.6909 43.7646C20.3529 44.078 20.8766 44.6218 21.1632 45.2934C20.1998 45.9447 18.6184 46.7498 17.5187 45.9085ZM28.734 51.8154C27.9213 51.6603 27.1572 51.3154 26.5047 50.809C25.8521 50.3026 25.3297 49.6492 24.9804 48.9026C24.8015 48.2114 24.8015 47.4862 24.9804 46.795L29.2611 42.5254C30.6062 41.1957 31.8059 40.6167 32.8965 40.7162C34.056 40.9815 35.0965 41.6168 35.8594 42.5254C37.4862 44.1355 37.8225 44.814 34.0962 49.1288L33.4146 49.9158C32.6784 50.6213 30.5062 52.2586 28.734 51.8154ZM36.9136 56.0035C35.005 54.0949 35.7049 52.8466 36.0048 52.4757L36.0957 52.3672C36.4956 51.9209 36.8864 51.4777 37.2681 51.0374C38.9222 49.1559 41.9123 45.7909 43.2393 44.4702C44.5662 43.1495 47.1746 42.3264 49.6739 44.823C51.3553 46.4874 50.6555 47.98 50.3283 48.4413L42.0941 56.6368C41.6033 57.0257 39.3494 58.4549 36.8864 56.0035H36.9136ZM46.1749 60.1465C45.9064 60.0058 45.6777 59.8005 45.5094 59.5493C45.3411 59.2981 45.2387 59.0089 45.2115 58.7082L53.0094 50.9379C53.132 50.7852 53.2876 50.6619 53.4646 50.5772C53.6416 50.4924 53.8355 50.4484 54.0319 50.4484C54.2283 50.4484 54.4222 50.4924 54.5992 50.5772C54.7762 50.6619 54.9317 50.7852 55.0543 50.9379C56.5085 52.3762 55.8541 53.6517 55.6451 53.9321C54.7947 55.1886 53.8433 56.3745 52.8004 57.478C49.5194 60.7164 47.529 60.6078 46.1476 60.1465H46.1749ZM58.0717 60.1465C56.4358 60.6893 55.9178 60.1465 55.7542 59.7395V59.6761C56.3973 58.981 57.004 58.2534 57.5719 57.4961L59.4714 58.8168C59.1731 59.4173 58.6661 59.8897 58.0445 60.1465H58.0717ZM77.3758 44.823H77.294L63.5976 33.742C63.2217 33.518 62.7773 33.4367 62.3461 33.5129C61.9148 33.5892 61.5257 33.8178 61.2503 34.1568C60.975 34.4958 60.8319 34.9224 60.8473 35.3581C60.8628 35.7938 61.0358 36.2092 61.3345 36.528L75.9307 48.378H75.9852C75.9906 48.3987 75.9906 48.4205 75.9852 48.4413C76.0009 48.8641 75.917 49.2847 75.7402 49.6695C75.5635 50.0543 75.2988 50.3927 74.9673 50.6575C73.7676 51.8606 71.5228 51.2545 70.9411 51.0736L57.3083 42.0279C56.9079 41.7623 56.4181 41.6656 55.9462 41.7588C55.4743 41.8521 55.0588 42.1277 54.7908 42.5254C54.6577 42.7236 54.5652 42.946 54.5188 43.1798C54.4723 43.4137 54.4727 43.6544 54.52 43.888C54.5673 44.1217 54.6606 44.3438 54.7944 44.5415C54.9282 44.7392 55.0999 44.9087 55.2997 45.0401L68.16 53.5702C67.9925 54.4496 67.5036 55.2359 66.7876 55.7774C65.4516 56.682 62.9068 56.4377 62.0616 56.2749L59.335 54.4025C59.6329 53.3394 59.6264 52.2147 59.3165 51.155C59.0066 50.0954 58.4055 49.143 57.581 48.4051C56.7326 47.5079 55.5794 46.9566 54.3454 46.8583C54.2534 45.1311 53.487 43.5081 52.2096 42.3354C48.7015 38.8347 43.9391 38.7171 40.6399 41.9826C40.4945 42.1183 40.34 42.2811 40.1673 42.4621C39.7342 41.5557 39.1364 40.7369 38.4042 40.0468C37.0771 38.562 35.2825 37.57 33.3146 37.2336C31.0424 36.9532 28.7703 37.894 26.6345 40.0468L23.8625 42.7606C23.1509 41.6343 22.0781 40.7801 20.8178 40.3363C20.2484 40.1428 19.6689 39.9798 19.0819 39.8478C20.2245 37.251 21.196 34.5829 21.9903 31.8604C23.2627 27.4461 24.0079 16.4827 24.2624 11.9598C27.4158 11.9869 30.5623 11.6592 33.6418 10.9829C34.8051 10.7477 36.3138 10.5577 37.7134 10.4039C37.4123 10.9493 37.1715 11.5255 36.9954 12.1226C36.6598 13.1911 36.1765 14.2079 35.5594 15.1439C34.9236 16.1763 34.235 17.1757 33.4963 18.138C31.8968 20.2909 30.3972 22.3172 31.6786 24.6058C32.2297 25.6348 33.065 26.4857 34.0859 27.0578C35.1069 27.63 36.2709 27.8997 37.4408 27.8351C41.3397 27.7084 45.6114 24.6148 46.4293 22.9594C47.2473 21.3041 49.6012 18.0928 50.4192 17.532C52.4005 16.2203 53.8092 15.8495 55.9905 17.4777C58.9624 19.7301 80.4204 38.0025 81.8746 39.477C82.3744 40.0859 82.6474 40.8481 82.6474 41.6344C82.6474 42.4207 82.3744 43.1828 81.8746 43.7918C80.3023 45.3477 77.403 44.823 77.3758 44.823ZM96.7798 22.6519C99.7517 33.3078 101.797 46.7588 94.644 50.3228C93.6228 50.7201 92.5297 50.9011 91.4343 50.8544C90.3389 50.8077 89.2653 50.5342 88.282 50.0514C87.6781 49.7744 87.1105 49.425 86.5915 49.0112C86.7188 49.0112 86.846 49.0112 86.9823 49.0112C88.008 48.9387 89.0066 48.6504 89.9122 48.1655C90.8177 47.6805 91.6096 47.0099 92.2355 46.198C94.5894 43.2762 93.8533 32.0323 91.8265 23.2851C91.4125 21.131 90.5172 19.0972 89.2067 17.3341C87.8962 15.571 86.2042 14.1238 84.2558 13.0996C86.4825 12.7468 93.8896 12.394 96.7798 22.6519Z" fill="url(#paint0_linear)"/>
<defs>
<linearGradient id="paint0_linear" x1="1.41895" y1="1.18519" x2="61.2751" y2="91.4989" gradientUnits="userSpaceOnUse">
<stop stop-color="#FF7412"/>
<stop offset="1" stop-color="#FFA464"/>
</linearGradient>
</defs>
</svg>
