<svg width="94" height="108" viewBox="0 0 94 108" fill="none" xmlns="http://www.w3.org/2000/svg">
<path d="M68.5704 18.8873L40.1322 18.887V6.11688C40.1322 2.74416 37.388 0 34.0153 0H22.4254C18.8158 0 15.8792 2.93657 15.8792 6.54623C15.8792 10.1559 18.8158 13.0925 22.4254 13.0925H25.4301C26.7911 13.0925 27.8982 14.1998 27.8982 15.5605V18.8868H25.4306C11.5242 18.8868 0.210449 30.2003 0.210449 44.1067V67.4995V75.6136C0.210449 76.6211 1.0273 77.438 2.03486 77.438H36.2703V106.175C36.2703 107.183 37.0871 108 38.0947 108H46.957C47.9645 108 48.7814 107.183 48.7814 106.175V77.4382H91.9649C92.9725 77.4382 93.7893 76.6214 93.7893 75.6138V67.5008V44.1065C93.7893 30.2003 82.476 18.8873 68.5704 18.8873ZM90.1405 44.1062V65.6754H82.143V50.8989V36.1224C82.143 35.1148 81.3262 34.298 80.3186 34.298H49.362C52.9388 27.3214 60.2063 22.5361 68.5704 22.5361C80.4641 22.5361 90.1405 32.2123 90.1405 44.1062ZM47.0003 44.1062C47.0003 41.9666 47.315 39.8994 47.8979 37.9468H75.9512L55.3239 58.8229L47.1294 50.5318L47.0003 50.4007V44.1062ZM67.3821 51.8106L78.4942 40.5644V63.0567L67.3821 51.8106ZM64.8172 54.4064L75.952 65.6754H47.0003V55.5905L54.0264 62.7009C54.3692 63.0477 54.8367 63.2428 55.3242 63.2428C55.8117 63.2428 56.2792 63.0475 56.6217 62.7006L64.8172 54.4064ZM25.4301 9.44364H22.4254C20.8277 9.44364 19.528 8.14393 19.528 6.54623C19.528 4.94853 20.8277 3.64882 22.4254 3.64882H34.0153C35.3763 3.64882 36.4834 4.75612 36.4834 6.11688V44.7501C36.4834 46.1111 35.3761 47.2182 34.0153 47.2182C32.6545 47.2182 31.5473 46.1111 31.5473 44.7501V15.5608C31.547 12.1878 28.8029 9.44364 25.4301 9.44364ZM3.85927 44.107C3.85927 32.2125 13.5362 22.5359 25.4306 22.5359H27.8984V44.7501C27.8984 48.1231 30.6426 50.867 34.0153 50.867C37.388 50.867 40.1322 48.1231 40.1322 44.7501V22.5359H55.5161C48.2294 26.9621 43.3514 34.9752 43.3514 44.1062V65.6754H3.85927V44.107ZM45.1325 104.351H39.9191V77.4382H45.1325V104.351ZM3.85927 73.7894V69.3242L90.1405 69.3249V73.7894H3.85927Z" fill="url(#paint0_linear)"/>
<defs>
<linearGradient id="paint0_linear" x1="1.47505" y1="1.99999" x2="108.381" y2="87.1909" gradientUnits="userSpaceOnUse">
<stop stop-color="#FF7412"/>
<stop offset="1" stop-color="#FFA464"/>
</linearGradient>
</defs>
</svg>
