<svg width="363" height="421" viewBox="0 0 363 421" fill="none" xmlns="http://www.w3.org/2000/svg">
<path d="M10.2953 318.145C13.1983 311.799 17.6982 302.81 23.0124 299.082C36.6919 289.511 69.2434 272.944 126.177 300.076C189.99 330.481 191.793 274.694 254.432 270.845C299.557 268.079 348.512 279.956 359.129 302.694C369.113 324.035 360.663 376.042 321.338 372.372C250.471 365.757 255.119 381.144 187.087 407.721C117.468 434.906 102.577 364.504 37.2312 385.385C-5.95396 399.176 -2.92407 347.207 10.2953 318.145Z" fill="#E9FFCC"/>
<path d="M302.831 47.0884L234.105 225.771H238.436L302.831 47.0884Z" fill="#8CC73D"/>
<path d="M303.433 16.7466C303.433 16.7466 299.631 40.579 302.831 47.0884C302.831 47.0884 310.937 33.4827 303.433 16.7466Z" fill="#8CC73D"/>
<path d="M286.105 23.2349C286.105 23.2349 292.71 43.3552 298.373 47.2524C298.373 47.2524 300.018 33.5251 286.105 23.2349Z" fill="#8CC73D"/>
<path d="M321.808 10.999C321.808 10.999 302.376 36.476 303.888 46.0735C303.888 46.0735 324.547 35.2334 321.808 10.999Z" fill="#8CC73D"/>
<path d="M277.354 31.8755C277.354 31.8755 283.784 57.6221 286.015 64.8665C286.544 66.5692 287.073 67.3466 287.602 67.484C289.188 67.8912 290.674 62.4923 291.018 58.7485C291.488 53.762 289.003 38.2897 277.354 31.8755Z" fill="#8CC73D"/>
<path d="M287.961 67.0716C287.961 67.0716 287.903 66.9394 287.914 67.1509C288.02 69.4405 288.691 83.3424 288.152 85.6955C287.56 88.2707 289.68 82.4064 289.68 82.4064L287.961 67.0716Z" fill="#8CC73D"/>
<path d="M298.378 47.0092C298.378 47.0092 298.146 46.8823 298.167 46.9616C298.754 49.1931 297.955 58.3464 297.416 60.7101C296.824 63.28 298.473 58.6796 298.473 58.6796L298.378 47.0092Z" fill="#8CC73D"/>
<path d="M271.511 41.938C271.511 41.938 272.923 75.479 276.762 83.1834C281.653 92.9977 284.424 75.1987 283.922 71.8726C283.419 68.5466 282.261 49.4203 271.511 41.938Z" fill="#8CC73D"/>
<path d="M298.378 47.0092C298.378 47.0092 298.146 46.8823 298.167 46.9616C298.754 49.1931 297.955 58.3464 297.416 60.7101C296.824 63.28 298.473 58.6796 298.473 58.6796L298.378 47.0092Z" fill="#8CC73D"/>
<path d="M279.972 84.9392C279.972 84.9392 279.908 84.7859 279.919 85.0239C280.019 87.5779 280.664 103.071 280.114 105.694C279.517 108.565 281.658 102.03 281.658 102.03L279.972 84.9392Z" fill="#8CC73D"/>
<path d="M252.068 54.7876C252.068 54.7876 261.586 93.2199 267.275 101.48C274.483 111.992 275.112 90.375 273.806 86.6153C272.5 82.8556 264.489 61.646 252.068 54.7876Z" fill="#8CC73D"/>
<path d="M271.22 103.944C271.22 103.944 271.046 103.293 271.056 103.558C271.167 106.408 273.203 121.917 272.584 124.847C271.913 128.046 274.303 121.32 274.303 121.32L271.22 103.944Z" fill="#8CC73D"/>
<path d="M240.884 72.4229C240.884 72.4229 253.575 112.362 259.243 121.161C266.435 132.356 266.022 108.116 264.034 101.437C261.993 94.6002 253.3 79.7307 240.884 72.4229Z" fill="#E9EDFB"/>
<path d="M263.183 123.763C263.183 123.763 263.008 123.07 263.019 123.35C263.13 126.391 265.134 142.916 264.526 146.03C263.849 149.441 266.245 142.27 266.245 142.27L263.183 123.763Z" fill="#E9EDFB"/>
<path d="M233.217 91.8501C233.217 91.8501 245.908 131.789 251.571 140.588C258.768 151.788 258.35 127.543 256.362 120.87C254.326 114.027 245.633 99.1632 233.217 91.8501Z" fill="#E9EDFB"/>
<path d="M255.515 143.217C255.515 143.217 255.336 142.524 255.346 142.805C255.457 145.84 257.461 162.898 256.848 166.029C256.171 169.44 258.889 161.603 258.889 161.603L255.515 143.217Z" fill="#E9EDFB"/>
<path d="M220.167 108.777C220.167 108.777 236.977 150.181 242.629 158.975C249.821 170.174 248.219 142.677 246.23 135.999C244.195 129.162 232.583 116.085 220.167 108.777Z" fill="#E9EDFB"/>
<path d="M245.765 161.407C245.765 161.407 245.633 161.031 245.643 161.37C245.744 165.024 248.488 185.34 247.853 189.094C247.166 193.203 250.365 183.88 250.365 183.88L245.765 161.407Z" fill="#E9EDFB"/>
<path d="M203.352 129.971C203.352 129.971 210.178 144.909 218.919 157.468C224.793 165.928 232.667 172.543 235.628 175.653C244.982 185.504 237.024 159.763 233.719 153.528C230.33 147.156 217.073 135.179 203.352 129.971Z" fill="#E9EDFB"/>
<path d="M239.309 177.387C239.309 177.387 239.177 177.011 239.187 177.35C239.288 181.009 242.201 202.959 241.387 206.692C241.196 207.575 244.084 200.03 244.084 200.03L239.309 177.387Z" fill="#E9EDFB"/>
<path d="M195.452 150.578C195.452 150.578 203.114 167.393 212.843 181.575C219.379 191.093 228.093 198.618 231.35 202.129C241.714 213.265 232.678 184.335 228.981 177.313C225.206 170.116 210.543 156.548 195.452 150.578Z" fill="#E9EDFB"/>
<path d="M178.716 184.61C178.716 184.61 196.319 194.974 208.75 204.736C223.339 216.189 225.925 217.49 230.266 218.902C244.014 223.36 223.392 195.529 217.163 191.479C210.786 187.328 194.309 182.865 178.716 184.61Z" fill="#E9EDFB"/>
<path d="M235.655 204.81C235.593 204.545 235.51 204.285 235.406 204.033C235.538 205.936 238.383 214.635 237.606 216.581C237.421 217.041 239.06 213.202 239.06 213.202L235.655 204.81Z" fill="#E9EDFB"/>
<path d="M233.032 217.998C233.032 217.998 232.762 217.533 232.778 217.617C232.926 218.558 235.855 222.858 235.094 223.815C234.914 224.042 236.522 222.149 236.522 222.149L233.032 217.998Z" fill="#E9EDFB"/>
<path d="M317.879 26.27C317.879 26.27 306.495 47.908 301.048 52.6354C301.048 52.6354 304.295 38.6278 317.879 26.27Z" fill="#8CC73D"/>
<path d="M323.765 36.7241C323.765 36.7241 308.742 52.2387 303.412 54.0208C303.412 54.0208 310.27 41.7106 323.765 36.7241Z" fill="#8CC73D"/>
<path d="M310.995 16.165C310.995 16.165 307.293 43.5985 301.038 51.4616C301.038 51.4616 295.777 36.3224 310.995 16.165Z" fill="#8CC73D"/>
<path d="M323.701 46.6284C323.701 46.6284 305.596 67.0555 300.271 72.6818C299.018 74.0037 298.272 74.5272 297.902 74.4955C296.792 74.395 299.034 69.324 300.959 65.9979C303.528 61.5667 313.654 48.9022 323.701 46.6284Z" fill="#8CC73D"/>
<path d="M297.95 74.0568C297.95 74.0568 298.061 73.9563 297.95 74.1361C296.596 76.082 288.363 87.8846 287.332 90.079C286.2 92.4692 288.347 86.8111 288.347 86.8111L297.95 74.0568Z" fill="#8CC73D"/>
<path d="M303.55 53.8039C303.55 53.8039 303.751 53.7616 303.692 53.8303C302.106 55.5859 297.347 63.7134 296.337 65.8973C295.205 68.2874 296.898 63.8509 296.898 63.8509L303.55 53.8039Z" fill="#8CC73D"/>
<path d="M321.216 56.9502C321.216 56.9502 301.466 85.5047 294.989 91.094C286.74 98.2009 295.28 82.057 297.437 79.3285C299.594 76.5999 311.074 60.4032 321.216 56.9502Z" fill="#8CC73D"/>
<path d="M303.55 53.8039C303.55 53.8039 303.751 53.7616 303.692 53.8303C302.106 55.5859 297.347 63.7134 296.337 65.8973C295.205 68.2874 296.898 63.8509 296.898 63.8509L303.55 53.8039Z" fill="#8CC73D"/>
<path d="M292.239 91.6972C292.239 91.6972 292.355 91.5809 292.239 91.7871C290.737 93.9605 281.621 107.154 280.437 109.576C279.147 112.22 281.664 105.975 281.664 105.975L292.239 91.6972Z" fill="#8CC73D"/>
<path d="M324.69 73.4805C324.69 73.4805 297.691 103.992 289.897 109.533C279.977 116.593 291.858 97.7518 294.698 94.8752C297.537 91.9986 313.956 75.9288 324.69 73.4805Z" fill="#8CC73D"/>
<path d="M286.317 110.543C286.317 110.543 286.782 110.014 286.623 110.257C284.947 112.684 275.059 125.502 273.737 128.204C272.299 131.155 274.795 124.677 274.795 124.677L286.317 110.543Z" fill="#8CC73D"/>
<path d="M320.883 91.8345C320.883 91.8345 291.271 122.758 283.197 128.77C272.896 136.422 286.835 115.614 291.71 110.405C296.697 105.07 309.9 94.6793 320.883 91.8345Z" fill="#8CC73D"/>
<path d="M279.538 129.933C279.538 129.933 280.024 129.405 279.86 129.627C278.083 132.218 267.629 145.913 266.202 148.779C264.647 151.91 267.381 145.051 267.381 145.051L279.538 129.933Z" fill="#8CC73D"/>
<path d="M314.125 110.754C314.125 110.754 284.513 141.678 276.434 147.69C266.133 155.342 280.072 134.534 284.947 129.325C289.939 123.99 303.142 113.594 314.125 110.754Z" fill="#8CC73D"/>
<path d="M272.775 148.854C272.775 148.854 273.267 148.325 273.103 148.547C271.321 151.138 260.566 165.31 259.138 168.176C257.583 171.306 260.518 163.782 260.518 163.782L272.775 148.854Z" fill="#8CC73D"/>
<path d="M311.746 129.019C311.746 129.019 279.062 160.053 270.982 166.065C260.682 173.717 277.121 150.429 281.991 145.226C286.967 139.89 300.768 131.853 311.746 129.019Z" fill="#8CC73D"/>
<path d="M267.868 167.287C267.868 167.287 268.148 166.996 267.952 167.287C265.837 170.417 252.829 187.18 251.032 190.607C249.091 194.34 252.618 185.398 252.618 185.398L267.868 167.287Z" fill="#E9EDFB"/>
<path d="M309.054 152.016C309.054 152.016 296.839 163.004 284.905 171.412C276.889 177.059 268.788 180.581 265.403 182.437C254.675 188.317 273.621 168.329 278.972 163.871C284.434 159.302 298.521 152.677 309.054 152.016Z" fill="#8CC73D"/>
<path d="M262.384 182.886C262.384 182.886 262.67 182.601 262.474 182.886C260.359 186.017 246.331 204.149 244.665 207.596C244.274 208.416 246.944 201.092 246.944 201.092L262.384 182.886Z" fill="#E9EDFB"/>
<path d="M301.736 172.02C301.736 172.02 287.988 184.388 274.615 193.912C265.626 200.305 256.568 204.355 252.771 206.471C240.758 213.181 262.104 190.739 268.106 185.71C274.277 180.56 290.018 172.94 301.736 172.02Z" fill="#8CC73D"/>
<path d="M291.716 206.084C291.716 206.084 276.149 210.103 263.77 215.074C249.25 220.89 247.087 221.282 243.893 221.282C233.788 221.282 260.909 203.033 266.631 201.278C272.495 199.453 284.101 200.209 291.716 206.084Z" fill="#8CC73D"/>
<path d="M248.895 207.581C248.895 207.581 249.577 206.835 249.466 206.983C248.319 208.57 241.831 215.301 241.159 217.2C241.001 217.644 242.264 213.873 242.264 213.873L248.895 207.581Z" fill="#E9EDFB"/>
<path d="M242.878 219.706C242.878 219.706 243.29 219.373 243.237 219.447C242.619 220.214 238.574 223.106 238.479 224.148C238.479 224.396 238.637 222.307 238.637 222.307L242.878 219.706Z" fill="#E9EDFB"/>
<path d="M22.6528 95.3774L93.8791 274.06H89.395L22.6528 95.3774Z" fill="#8CC73D"/>
<path d="M22.0289 65.0356C22.0289 65.0356 25.9683 88.8681 22.6529 95.3775C22.6529 95.3775 14.2506 81.7718 22.0289 65.0356Z" fill="#8CC73D"/>
<path d="M39.9861 71.5239C39.9861 71.5239 33.1384 91.6443 27.2954 95.5415C27.269 95.5415 25.5663 81.8141 39.9861 71.5239Z" fill="#8CC73D"/>
<path d="M2.98742 59.2876C2.98742 59.2876 23.1232 84.7646 21.5581 94.3621C21.5581 94.3621 0.147886 83.5219 2.98742 59.2876Z" fill="#8CC73D"/>
<path d="M49.0546 80.1641C49.0546 80.1641 42.3867 105.911 40.0654 113.155C39.5366 114.858 38.955 115.635 38.3997 115.773C36.7447 116.18 35.2271 110.781 34.8622 107.037C34.4075 102.051 36.9826 86.573 49.0546 80.1641Z" fill="#8CC73D"/>
<path d="M38.0613 115.36C38.0613 115.36 38.1247 115.228 38.1141 115.439C38.0031 117.729 37.3051 131.626 37.8656 133.984C38.4843 136.559 36.2793 130.695 36.2793 130.695L38.0613 115.36Z" fill="#8CC73D"/>
<path d="M27.2637 95.2981C27.2637 95.2981 27.5122 95.1658 27.4857 95.2504C26.8777 97.4819 27.7025 106.635 28.263 108.999C28.8764 111.574 27.1685 106.974 27.1685 106.974L27.2637 95.2981Z" fill="#8CC73D"/>
<path d="M55.1145 90.2271C55.1145 90.2271 53.655 123.763 49.6733 131.483C44.6024 141.297 41.7417 123.498 42.2704 120.167C42.7992 116.836 43.9678 97.7094 55.1145 90.2271Z" fill="#8CC73D"/>
<path d="M27.2637 95.2981C27.2637 95.2981 27.5122 95.1658 27.4857 95.2504C26.8777 97.4819 27.7025 106.635 28.263 108.999C28.8764 111.574 27.1685 106.974 27.1685 106.974L27.2637 95.2981Z" fill="#8CC73D"/>
<path d="M46.3208 133.228C46.3208 133.228 46.3843 133.074 46.379 133.312C46.2732 135.866 45.6017 151.355 46.1728 153.983C46.7914 156.854 44.5864 150.318 44.5864 150.318L46.3208 133.228Z" fill="#8CC73D"/>
<path d="M75.2607 103.077C75.2607 103.077 65.3673 141.509 59.4979 149.769C52.0315 160.281 51.3812 138.664 52.7348 134.904C54.0885 131.145 62.385 109.935 75.2607 103.077Z" fill="#8CC73D"/>
<path d="M55.4107 152.232C55.4107 152.232 55.5958 151.582 55.5852 151.846C55.4636 154.697 53.3591 170.206 53.9989 173.135C54.6969 176.335 52.2222 169.608 52.2222 169.608L55.4107 152.232Z" fill="#8CC73D"/>
<path d="M86.8466 120.711C86.8466 120.711 73.6853 160.651 67.8106 169.45C60.3548 180.644 60.7831 156.405 62.8454 149.726C64.9711 142.889 73.9814 128.019 86.8466 120.711Z" fill="#8CC73D"/>
<path d="M63.7386 172.072C63.7386 172.072 63.9237 171.38 63.9132 171.66C63.7968 174.701 61.7082 191.225 62.3533 194.34C63.0512 197.75 60.5713 190.58 60.5713 190.58L63.7386 172.072Z" fill="#8CC73D"/>
<path d="M94.7993 140.155C94.7993 140.155 81.6328 180.095 75.7633 188.894C68.3076 200.093 68.7412 175.848 70.7981 169.175C72.9185 162.317 81.9342 147.453 94.7993 140.155Z" fill="#8CC73D"/>
<path d="M71.6914 191.506C71.6914 191.506 71.8712 190.813 71.8606 191.093C71.7443 194.128 69.6662 211.187 70.306 214.317C71.0093 217.728 68.1909 209.892 68.1909 209.892L71.6914 191.506Z" fill="#8CC73D"/>
<path d="M108.32 157.076C108.32 157.076 90.9021 198.475 85.0538 207.274C77.5981 218.474 79.2373 190.977 81.3207 184.298C83.4199 177.45 95.4549 164.373 108.32 157.076Z" fill="#E9EDFB"/>
<path d="M81.7911 209.696C81.7911 209.696 81.9286 209.321 81.918 209.659C81.8176 213.313 78.9727 233.624 79.6231 237.383C80.337 241.492 77.0269 232.169 77.0269 232.169L81.7911 209.696Z" fill="#E9EDFB"/>
<path d="M125.749 178.26C125.749 178.26 118.674 193.198 109.61 205.757C103.529 214.217 95.3335 220.832 92.2983 223.942C82.6005 233.793 90.8494 208.052 94.2759 201.817C97.787 195.445 111.525 183.468 125.749 178.26Z" fill="#E9EDFB"/>
<path d="M88.4854 225.676C88.4854 225.676 88.6176 225.301 88.607 225.639C88.5065 229.298 85.4872 251.248 86.328 254.981C86.5289 255.864 83.5308 248.319 83.5308 248.319L88.4854 225.676Z" fill="#E9EDFB"/>
<path d="M133.934 198.851C133.934 198.851 126.002 215.666 115.908 229.848C109.14 239.366 100.108 246.891 96.7186 250.402C85.9739 261.538 95.3385 232.608 99.1722 225.586C103.096 218.416 118.293 204.847 133.934 198.851Z" fill="#E9EDFB"/>
<path d="M151.278 232.899C151.278 232.899 133.04 243.263 120.149 253.025C105.031 264.478 102.355 265.779 97.8555 267.191C83.5785 271.649 104.989 243.819 111.434 239.768C118.044 235.617 135.113 231.154 151.278 232.899Z" fill="#E9EDFB"/>
<path d="M92.2559 253.093C92.2559 253.093 92.5255 252.147 92.515 252.321C92.3775 254.225 89.4269 262.897 90.2359 264.869C90.4263 265.329 88.7236 261.49 88.7236 261.49L92.2559 253.093Z" fill="#E9EDFB"/>
<path d="M94.9894 266.287C94.9894 266.287 95.2643 265.822 95.2538 265.906C95.0951 266.848 92.0811 271.147 92.8531 272.104C93.0382 272.331 91.3726 270.438 91.3726 270.438L94.9894 266.287Z" fill="#E9EDFB"/>
<path d="M7.05908 74.5854C7.05908 74.5854 18.8561 96.2234 24.5087 100.951C24.4981 100.924 21.1563 86.9062 7.05908 74.5854Z" fill="#8CC73D"/>
<path d="M0.957031 85.0132C0.957031 85.0132 16.5242 100.528 22.0499 102.31C22.0499 102.31 14.9432 89.9996 0.957031 85.0132Z" fill="#8CC73D"/>
<path d="M14.1924 64.4541C14.1924 64.4541 18.0207 91.8876 24.5088 99.7507C24.5088 99.7507 29.9605 84.6326 14.1924 64.4541Z" fill="#8CC73D"/>
<path d="M1.02051 94.9175C1.02051 94.9175 19.7868 115.345 25.3072 120.971C26.6027 122.293 27.3748 122.816 27.7608 122.785C28.9135 122.684 26.5869 117.613 24.5881 114.287C21.9284 109.856 11.4374 97.1913 1.02051 94.9175Z" fill="#8CC73D"/>
<path d="M27.7134 122.329C27.7134 122.329 27.6024 122.229 27.7134 122.414C29.12 124.36 37.6491 136.163 38.7226 138.357C39.8912 140.747 37.665 135.084 37.665 135.084L27.7134 122.329Z" fill="#8CC73D"/>
<path d="M21.9285 102.082C21.9285 102.082 21.717 102.04 21.7804 102.109C23.4249 103.864 28.332 111.992 29.4054 114.176C30.574 116.566 28.8237 112.129 28.8237 112.129L21.9285 102.082Z" fill="#8CC73D"/>
<path d="M3.57471 105.255C3.57471 105.255 24.0437 133.81 30.7591 139.383C39.3095 146.49 30.4577 130.346 28.221 127.618C25.9843 124.889 14.1132 108.692 3.57471 105.255Z" fill="#8CC73D"/>
<path d="M21.9285 102.082C21.9285 102.082 21.717 102.04 21.7804 102.109C23.4249 103.864 28.332 111.992 29.4054 114.176C30.574 116.566 28.8237 112.129 28.8237 112.129L21.9285 102.082Z" fill="#8CC73D"/>
<path d="M33.6302 139.986C33.6302 139.986 33.5086 139.87 33.6302 140.071C35.1848 142.249 44.6341 155.443 45.8608 157.864C47.1986 160.508 44.5918 154.263 44.5918 154.263L33.6302 139.986Z" fill="#8CC73D"/>
<path d="M0 121.769C0 121.769 27.9828 152.275 36.0573 157.822C46.3367 164.881 34.0215 146.04 31.0762 143.164C28.1309 140.287 11.1202 124.217 0 121.769Z" fill="#8CC73D"/>
<path d="M39.7589 158.848C39.7589 158.848 39.2777 158.319 39.4364 158.562C41.1708 160.989 51.4238 173.807 52.788 176.509C54.2844 179.46 51.704 172.982 51.704 172.982L39.7589 158.848Z" fill="#8CC73D"/>
<path d="M3.94971 140.124C3.94971 140.124 34.6188 171.047 43.0052 177.059C53.6812 184.711 39.235 163.903 34.1852 158.695C29.0084 153.375 15.3237 142.963 3.94971 140.124Z" fill="#8CC73D"/>
<path d="M46.781 178.228C46.781 178.228 46.2787 177.699 46.4479 177.921C48.2881 180.512 59.1386 194.208 60.598 197.074C62.2108 200.204 59.3818 193.346 59.3818 193.346L46.781 178.228Z" fill="#8CC73D"/>
<path d="M10.9512 159.043C10.9512 159.043 41.6202 189.967 50.0066 195.979C60.6826 203.631 46.2365 182.823 41.1866 177.614C36.0152 172.279 22.3305 161.883 10.9512 159.043Z" fill="#8CC73D"/>
<path d="M53.798 197.142C53.798 197.142 53.2692 196.614 53.4648 196.836C55.305 199.427 66.4569 213.593 67.9321 216.464C69.5185 219.595 66.5044 212.07 66.5044 212.07L53.798 197.142Z" fill="#8CC73D"/>
<path d="M13.4097 177.308C13.4097 177.308 47.3095 208.369 55.6748 214.354C66.3455 222.006 49.3295 198.718 44.2638 193.51C39.0923 188.179 24.7889 180.142 13.4097 177.308Z" fill="#8CC73D"/>
<path d="M58.89 215.576C58.89 215.576 58.5938 215.285 58.8001 215.576C60.9998 218.706 74.473 235.469 76.3131 238.89C78.3278 242.629 74.6898 233.687 74.6898 233.687L58.89 215.576Z" fill="#8CC73D"/>
<path d="M16.2231 200.305C16.2231 200.305 28.882 211.293 41.2501 219.701C49.5519 225.348 57.9489 228.864 61.46 230.726C72.5643 236.606 52.9414 216.618 47.3945 212.16C41.7155 207.591 27.1212 200.966 16.2231 200.305Z" fill="#8CC73D"/>
<path d="M64.5692 231.175C64.5692 231.175 64.273 230.89 64.4793 231.175C66.679 234.306 81.2098 252.438 82.9336 255.885C83.3407 256.705 80.57 249.381 80.57 249.381L64.5692 231.175Z" fill="#8CC73D"/>
<path d="M23.7896 220.309C23.7896 220.309 38.0242 232.693 51.894 242.211C61.2111 248.604 70.6021 252.655 74.531 254.77C86.9678 261.469 64.8597 239.038 58.6254 233.999C52.243 228.848 35.9197 221.245 23.7896 220.309Z" fill="#8CC73D"/>
<path d="M34.1694 254.373C34.1694 254.373 50.3024 258.392 63.1358 263.363C78.1848 269.179 80.4268 269.571 83.7581 269.571C94.2279 269.571 66.1287 251.322 60.1958 249.567C54.0937 247.742 42.0641 248.498 34.1694 254.373Z" fill="#8CC73D"/>
<path d="M78.5496 255.87C78.37 255.66 78.1794 255.461 77.9785 255.272C79.1736 256.858 85.9102 263.59 86.5923 265.483C86.7562 265.932 85.4449 262.162 85.4449 262.162L78.5496 255.87Z" fill="#E9EDFB"/>
<path d="M84.7843 267.989C84.7843 267.989 84.356 267.661 84.4141 267.73C85.0539 268.502 89.2419 271.395 89.3741 272.436C89.4005 272.685 89.2101 270.596 89.2101 270.596L84.7843 267.989Z" fill="#E9EDFB"/>
<path d="M316.494 133.662L250.481 269.084L253.876 269.38L316.494 133.662Z" fill="#729642"/>
<path d="M319.027 109.914C319.027 109.914 314.427 128.342 316.494 133.662C316.494 133.662 323.776 123.546 319.027 109.914Z" fill="#729642"/>
<path d="M304.999 113.827C304.999 113.827 308.811 130.05 312.988 133.487C312.988 133.487 315.209 122.837 304.999 113.827Z" fill="#729642"/>
<path d="M333.822 106.656C333.822 106.656 316.859 125.312 317.393 132.937C317.393 132.937 334.325 125.841 333.822 106.656Z" fill="#729642"/>
<path d="M297.553 120.003C297.553 120.003 300.847 140.626 302.101 146.442C302.397 147.812 302.772 148.462 303.185 148.605C304.411 149.033 305.929 144.904 306.453 141.99C307.145 138.124 306.252 125.825 297.553 120.003Z" fill="#729642"/>
<path d="M303.481 148.319C303.481 148.319 303.444 148.208 303.433 148.378C303.365 150.181 302.947 161.127 302.376 162.935C301.736 164.913 303.803 160.46 303.803 160.46L303.481 148.319Z" fill="#729642"/>
<path d="M313.01 133.281C313.01 133.281 312.835 133.164 312.846 133.233C313.152 135.02 311.91 142.143 311.323 143.952C310.683 145.929 312.29 142.434 312.29 142.434L313.01 133.281Z" fill="#FFA464"/>
<path d="M292.287 127.496C292.287 127.496 291.113 153.893 293.603 160.202C296.776 168.229 300.15 154.459 299.98 151.815C299.811 149.171 300.208 134.095 292.287 127.496Z" fill="#729642"/>
<path d="M313.01 133.281C313.01 133.281 312.835 133.164 312.846 133.233C313.152 135.02 311.91 142.143 311.323 143.952C310.683 145.929 312.29 142.434 312.29 142.434L313.01 133.281Z" fill="#729642"/>
<path d="M296.02 161.788C296.02 161.788 295.977 161.666 295.972 161.851C295.877 163.861 295.332 176.049 294.724 178.069C294.058 180.279 296.178 175.298 296.178 175.298L296.02 161.788Z" fill="#729642"/>
<path d="M276.175 136.252C276.175 136.252 281.045 167.033 284.926 173.892C289.865 182.622 291.8 165.711 291.055 162.681C290.309 159.651 285.444 142.476 276.175 136.252Z" fill="#729642"/>
<path d="M287.85 176.113C287.85 176.113 287.755 175.584 287.745 175.801C287.644 178.043 288.184 190.337 287.501 192.595C286.761 195.059 289.088 189.951 289.088 189.951L287.85 176.113Z" fill="#729642"/>
<path d="M266.223 149.319C266.223 149.319 273.473 181.496 277.327 188.777C282.208 198.041 283.525 179.01 282.42 173.638C281.251 168.138 275.445 155.892 266.223 149.319Z" fill="#729642"/>
<path d="M280.204 191.104C280.204 191.104 280.109 190.549 280.099 190.766C279.982 193.156 280.437 206.243 279.744 208.649C278.983 211.293 281.331 205.82 281.331 205.82L280.204 191.104Z" fill="#729642"/>
<path d="M258.878 164.03C258.878 164.03 266.123 196.207 269.983 203.488C274.863 212.758 276.185 193.721 275.08 188.354C273.922 182.849 268.111 170.608 258.878 164.03Z" fill="#729642"/>
<path d="M272.87 205.815C272.87 205.815 272.78 205.286 272.769 205.481C272.648 207.872 273.06 221.387 272.368 223.793C271.606 226.437 274.266 220.462 274.266 220.462L272.87 205.815Z" fill="#729642"/>
<path d="M247.499 176.414C247.499 176.414 257.863 210.013 261.697 217.3C266.577 226.564 267.185 204.9 266.08 199.527C264.949 194.028 256.731 182.987 247.499 176.414Z" fill="#FFA464"/>
<path d="M263.992 219.415C263.992 219.415 263.913 219.114 263.897 219.378C263.728 222.249 264.5 238.362 263.749 241.265C262.934 244.437 266.07 237.346 266.07 237.346L263.992 219.415Z" fill="#FFA464"/>
<path d="M232.874 191.886C232.874 191.886 237.209 204.048 243.211 214.518C247.24 221.535 252.972 227.273 255.077 229.911C261.745 238.266 257.25 217.548 255.077 212.461C252.856 207.195 243.28 196.904 232.874 191.886Z" fill="#FFA464"/>
<path d="M257.842 231.508C257.842 231.508 257.768 231.207 257.752 231.471C257.583 234.343 258.376 251.75 257.488 254.622C257.277 255.304 260.053 249.582 260.053 249.582L257.842 231.508Z" fill="#FFA464"/>
<path d="M225.28 207.512C225.28 207.512 230.145 221.213 236.812 232.994C241.286 240.926 247.61 247.388 249.937 250.365C257.308 259.798 252.189 236.505 249.762 230.747C247.282 224.845 236.707 213.223 225.28 207.512Z" fill="#FFA464"/>
<path d="M209.851 233.058C209.851 233.058 222.943 242.375 232.033 250.873C242.693 260.84 244.628 262.041 247.938 263.437C258.413 267.868 244.131 244.649 239.526 241.048C234.809 237.362 222.198 232.746 209.851 233.058Z" fill="#FFA464"/>
<path d="M253.12 252.755C253.088 252.544 253.04 252.335 252.978 252.131C252.978 253.633 254.564 260.644 253.85 262.114C253.67 262.463 255.22 259.571 255.22 259.571L253.12 252.755Z" fill="#FFA464"/>
<path d="M250.17 262.918C250.17 262.918 249.99 262.532 249.995 262.601C250.048 263.352 252.052 266.921 251.386 267.619C251.232 267.788 252.618 266.408 252.618 266.408L250.17 262.918Z" fill="#FFA464"/>
<path d="M329.703 118.364C329.703 118.364 319.307 134.555 314.723 137.887C314.723 137.887 318.197 127.12 329.703 118.364Z" fill="#729642"/>
<path d="M333.61 126.936C333.61 126.936 320.777 138.082 316.483 139.098C316.483 139.135 322.691 129.95 333.61 126.936Z" fill="#729642"/>
<path d="M324.992 109.972C324.992 109.972 320.233 131.229 314.791 136.966C314.791 136.982 311.698 124.741 324.992 109.972Z" fill="#729642"/>
<path d="M332.891 134.719C332.891 134.719 317.303 149.525 312.75 153.555C311.693 154.506 311.058 154.866 310.767 154.813C309.905 154.665 312.005 150.837 313.744 148.362C316.06 145.062 324.854 135.819 332.891 134.719Z" fill="#729642"/>
<path d="M310.831 154.464C310.831 154.464 310.926 154.395 310.831 154.528C309.636 155.961 302.37 164.659 301.424 166.304C300.366 168.102 302.439 163.813 302.439 163.813L310.831 154.464Z" fill="#729642"/>
<path d="M316.6 138.976C316.6 138.976 316.764 138.976 316.711 139.008C315.352 140.277 311.084 146.326 310.122 147.971C309.065 149.763 310.704 146.384 310.704 146.384L316.6 138.976Z" fill="#FFA464"/>
<path d="M330.258 142.646C330.258 142.646 312.835 163.697 307.372 167.631C300.424 172.644 308.213 160.567 310.09 158.573C311.968 156.58 322.051 144.661 330.258 142.646Z" fill="#729642"/>
<path d="M316.6 138.976C316.6 138.976 316.764 138.976 316.711 139.008C315.352 140.277 311.084 146.326 310.122 147.971C309.065 149.763 310.704 146.384 310.704 146.384L316.6 138.976Z" fill="#729642"/>
<path d="M305.162 167.917C305.162 167.917 305.263 167.837 305.162 167.985C303.835 169.572 295.792 179.312 294.698 181.131C293.508 183.114 295.903 178.392 295.903 178.392L305.162 167.917Z" fill="#729642"/>
<path d="M331.839 155.839C331.839 155.839 308.599 177.926 302.111 181.749C293.857 186.609 304.454 172.644 306.87 170.581C309.287 168.519 323.262 157.029 331.839 155.839Z" fill="#729642"/>
<path d="M299.245 182.305C299.245 182.305 299.642 181.935 299.504 182.099C298.029 183.891 289.405 193.267 288.183 195.318C286.856 197.534 289.241 192.621 289.241 192.621L299.245 182.305Z" fill="#729642"/>
<path d="M327.609 169.974C327.609 169.974 302.307 192.183 295.555 196.371C286.957 201.659 299.298 186.324 303.486 182.548C307.748 178.704 318.805 171.449 327.609 169.974Z" fill="#729642"/>
<path d="M292.604 197.032C292.604 197.032 293.027 196.635 292.879 196.815C291.292 198.724 282.187 208.75 280.875 210.902C279.442 213.255 282.049 208.062 282.049 208.062L292.604 197.032Z" fill="#729642"/>
<path d="M321.026 184.346C321.026 184.346 295.724 206.581 288.971 210.743C280.373 216.031 292.715 200.696 296.903 196.926C301.165 193.081 312.227 185.821 321.026 184.346Z" fill="#729642"/>
<path d="M286.021 211.41C286.021 211.41 286.444 211.013 286.296 211.187C284.71 213.096 275.329 223.476 274.018 225.629C272.585 227.982 275.398 222.281 275.398 222.281L286.021 211.41Z" fill="#729642"/>
<path d="M317.921 198.501C317.921 198.501 290.187 220.615 283.435 224.782C274.842 230.07 289.304 212.937 293.481 209.188C297.754 205.344 309.123 199.977 317.921 198.501Z" fill="#729642"/>
<path d="M280.918 225.522C280.918 225.522 281.161 225.321 280.986 225.522C279.109 227.833 267.767 240.091 266.154 242.655C264.378 245.452 267.741 238.679 267.741 238.679L280.918 225.522Z" fill="#729642"/>
<path d="M314.236 216.348C307.719 221.21 300.96 225.739 293.984 229.917C287.321 233.798 280.728 236.008 277.946 237.235C269.137 241.116 285.349 226.733 289.849 223.597C294.455 220.393 305.945 216.152 314.236 216.348Z" fill="#729642"/>
<path d="M275.567 237.389C275.567 237.389 275.805 237.182 275.63 237.389C273.753 239.699 261.533 252.961 259.994 255.552C259.629 256.166 262.22 250.608 262.22 250.608L275.567 237.389Z" fill="#729642"/>
<path d="M307.156 231.535C307.156 231.535 295.523 240.302 284.419 246.87C276.936 251.269 269.56 253.828 266.44 255.235C256.568 259.677 274.827 243.533 279.882 239.995C285.043 236.394 297.913 231.477 307.156 231.535Z" fill="#729642"/>
<path d="M296.987 257.546C296.987 257.546 284.508 259.661 274.467 262.68C262.686 266.239 260.962 266.382 258.461 266.197C250.529 265.509 273.039 253.041 277.645 252.052C282.361 251.058 291.414 252.438 296.987 257.546Z" fill="#729642"/>
<path d="M263.31 255.827C263.466 255.676 263.63 255.533 263.801 255.399C262.791 256.578 257.25 261.401 256.594 262.844C256.441 263.183 257.689 260.311 257.689 260.311L263.31 255.827Z" fill="#FFA464"/>
<path d="M257.763 264.949C257.763 264.949 258.112 264.722 258.064 264.775C257.535 265.335 254.162 267.329 253.993 268.138C253.956 268.328 254.241 266.705 254.241 266.705L257.763 264.949Z" fill="#FFA464"/>
<path d="M238.399 0H104.253C88.6471 0 75.9956 12.6517 75.9956 28.2584V300.394C75.9956 316 88.6471 328.652 104.253 328.652H238.399C254.005 328.652 266.657 316 266.657 300.394V28.2584C266.657 12.6517 254.005 0 238.399 0Z" fill="#FF7412"/>
<path d="M239.081 12.8335H103.064C92.7229 12.8335 84.3398 21.2167 84.3398 31.5579V300.441C84.3398 310.782 92.7229 319.165 103.064 319.165H239.081C249.422 319.165 257.805 310.782 257.805 300.441V31.5579C257.805 21.2167 249.422 12.8335 239.081 12.8335Z" fill="white"/>
<path d="M209.38 5.81152H129.619C125.341 5.81152 121.873 9.27985 121.873 13.5583V13.5635C121.873 17.842 125.341 21.3103 129.619 21.3103H209.38C213.658 21.3103 217.126 17.842 217.126 13.5635V13.5583C217.126 9.27985 213.658 5.81152 209.38 5.81152Z" fill="#FF7412"/>
<path d="M188.213 7.14941H151.928C150.305 7.14941 148.988 8.46572 148.988 10.0895V10.0948C148.988 11.7185 150.305 13.0348 151.928 13.0348H188.213C189.837 13.0348 191.153 11.7185 191.153 10.0948V10.0895C191.153 8.46572 189.837 7.14941 188.213 7.14941Z" fill="white"/>
<path d="M237.981 52.1123H107.284C103.017 52.1123 99.5581 55.5712 99.5581 59.8379V88.1386C99.5581 92.4053 103.017 95.8642 107.284 95.8642H237.981C242.248 95.8642 245.707 92.4053 245.707 88.1386V59.8379C245.707 55.5712 242.248 52.1123 237.981 52.1123Z" fill="#F5F5FC"/>
<path d="M121.83 89.434C130.527 89.434 137.577 82.3837 137.577 73.6867C137.577 64.9898 130.527 57.9395 121.83 57.9395C113.133 57.9395 106.083 64.9898 106.083 73.6867C106.083 82.3837 113.133 89.434 121.83 89.434Z" fill="#FF7412"/>
<path d="M230.636 59.3193H149.083C147.237 59.3193 145.741 60.8156 145.741 62.6613C145.741 64.507 147.237 66.0032 149.083 66.0032H230.636C232.482 66.0032 233.978 64.507 233.978 62.6613C233.978 60.8156 232.482 59.3193 230.636 59.3193Z" fill="#FF7412"/>
<path d="M211.918 70.4238H149.083C147.237 70.4238 145.741 71.9201 145.741 73.7658C145.741 75.6115 147.237 77.1077 149.083 77.1077H211.918C213.763 77.1077 215.26 75.6115 215.26 73.7658C215.26 71.9201 213.763 70.4238 211.918 70.4238Z" fill="#FF7412"/>
<path d="M163.868 82.7446H149.083C147.237 82.7446 145.741 84.2409 145.741 86.0866C145.741 87.9323 147.237 89.4285 149.083 89.4285H163.868C165.713 89.4285 167.21 87.9323 167.21 86.0866C167.21 84.2409 165.713 82.7446 163.868 82.7446Z" fill="#FF7412"/>
<path d="M237.981 164.987H107.284C103.017 164.987 99.5581 168.446 99.5581 172.713V201.014C99.5581 205.28 103.017 208.739 107.284 208.739H237.981C242.248 208.739 245.707 205.28 245.707 201.014V172.713C245.707 168.446 242.248 164.987 237.981 164.987Z" fill="#F5F5FC"/>
<path d="M121.83 202.309C130.527 202.309 137.577 195.259 137.577 186.562C137.577 177.865 130.527 170.814 121.83 170.814C113.133 170.814 106.083 177.865 106.083 186.562C106.083 195.259 113.133 202.309 121.83 202.309Z" fill="#FF7412"/>
<path d="M230.636 172.2H149.083C147.237 172.2 145.741 173.696 145.741 175.542C145.741 177.387 147.237 178.884 149.083 178.884H230.636C232.482 178.884 233.978 177.387 233.978 175.542C233.978 173.696 232.482 172.2 230.636 172.2Z" fill="#FF7412"/>
<path d="M211.918 183.304H149.083C147.237 183.304 145.741 184.8 145.741 186.646C145.741 188.492 147.237 189.988 149.083 189.988H211.918C213.763 189.988 215.26 188.492 215.26 186.646C215.26 184.8 213.763 183.304 211.918 183.304Z" fill="#FF7412"/>
<path d="M163.868 195.625H149.083C147.237 195.625 145.741 197.121 145.741 198.967C145.741 200.813 147.237 202.309 149.083 202.309H163.868C165.713 202.309 167.21 200.813 167.21 198.967C167.21 197.121 165.713 195.625 163.868 195.625Z" fill="#FF7412"/>
<path d="M237.981 218.521H107.284C103.017 218.521 99.5581 221.98 99.5581 226.247V254.548C99.5581 258.814 103.017 262.273 107.284 262.273H237.981C242.248 262.273 245.707 258.814 245.707 254.548V226.247C245.707 221.98 242.248 218.521 237.981 218.521Z" fill="#F5F5FC"/>
<path d="M121.83 255.838C130.527 255.838 137.577 248.788 137.577 240.091C137.577 231.394 130.527 224.343 121.83 224.343C113.133 224.343 106.083 231.394 106.083 240.091C106.083 248.788 113.133 255.838 121.83 255.838Z" fill="#FF7412"/>
<path d="M230.636 225.729H149.083C147.237 225.729 145.741 227.225 145.741 229.071C145.741 230.917 147.237 232.413 149.083 232.413H230.636C232.482 232.413 233.978 230.917 233.978 229.071C233.978 227.225 232.482 225.729 230.636 225.729Z" fill="#FF7412"/>
<path d="M211.918 236.833H149.083C147.237 236.833 145.741 238.33 145.741 240.175C145.741 242.021 147.237 243.517 149.083 243.517H211.918C213.763 243.517 215.26 242.021 215.26 240.175C215.26 238.33 213.763 236.833 211.918 236.833Z" fill="#FF7412"/>
<path d="M163.868 249.154H149.083C147.237 249.154 145.741 250.65 145.741 252.496C145.741 254.341 147.237 255.838 149.083 255.838H163.868C165.713 255.838 167.21 254.341 167.21 252.496C167.21 250.65 165.713 249.154 163.868 249.154Z" fill="#FF7412"/>
<path d="M203.754 112.711H73.056C68.7894 112.711 65.3306 116.17 65.3306 120.437V148.737C65.3306 153.004 68.7894 156.463 73.056 156.463H203.754C208.02 156.463 211.479 153.004 211.479 148.737V120.437C211.479 116.17 208.02 112.711 203.754 112.711Z" fill="#F5F5FC"/>
<path d="M197.408 105.308H66.7103C62.4437 105.308 58.9849 108.767 58.9849 113.034V141.334C58.9849 145.601 62.4437 149.06 66.7103 149.06H197.408C201.675 149.06 205.134 145.601 205.134 141.334V113.034C205.134 108.767 201.675 105.308 197.408 105.308Z" fill="#FF7412"/>
<path d="M81.2572 142.63C89.954 142.63 97.0042 135.58 97.0042 126.883C97.0042 118.186 89.954 111.135 81.2572 111.135C72.5604 111.135 65.5103 118.186 65.5103 126.883C65.5103 135.58 72.5604 142.63 81.2572 142.63Z" fill="#F5F5FC"/>
<path d="M190.064 112.516H108.51C106.665 112.516 105.168 114.012 105.168 115.858C105.168 117.703 106.665 119.2 108.51 119.2H190.064C191.909 119.2 193.405 117.703 193.405 115.858C193.405 114.012 191.909 112.516 190.064 112.516Z" fill="#F5F5FC"/>
<path d="M171.345 123.62H108.51C106.665 123.62 105.168 125.116 105.168 126.962C105.168 128.808 106.665 130.304 108.51 130.304H171.345C173.191 130.304 174.687 128.808 174.687 126.962C174.687 125.116 173.191 123.62 171.345 123.62Z" fill="#F5F5FC"/>
<path d="M123.295 135.94H108.51C106.665 135.94 105.168 137.437 105.168 139.282C105.168 141.128 106.665 142.624 108.51 142.624H123.295C125.141 142.624 126.637 141.128 126.637 139.282C126.637 137.437 125.141 135.94 123.295 135.94Z" fill="#F5F5FC"/>
<path d="M152.15 420C150.947 420.038 149.762 419.688 148.774 419C147.785 418.312 147.044 417.324 146.662 416.182C145.995 414.06 146.025 411.781 146.746 409.678C148.258 405.035 152.483 394.465 155.133 387.686C155.614 386.527 156.427 385.536 157.471 384.84C158.515 384.143 159.742 383.772 160.997 383.773L304.962 382.186C304.962 382.186 313.121 381.351 313.475 389.325C313.829 397.299 313.713 411.534 313.713 411.534C313.713 411.534 314.802 416.98 307.167 417.107C302.127 417.181 174.354 419.582 152.15 420Z" fill="#A6CA75"/>
<path d="M153.065 414.173C151.731 414.211 150.407 413.928 149.205 413.348C147.391 412.438 145.504 410.609 146.688 407.034C148.19 402.391 153.488 388.643 156.121 381.864C156.593 380.707 157.397 379.717 158.433 379.019C159.469 378.321 160.689 377.948 161.938 377.945L304.988 376.391C304.988 376.391 313.094 375.555 313.448 383.529C313.803 391.504 313.692 405.738 313.692 405.738C313.692 405.738 314.749 411.185 307.182 411.312C301.979 411.37 167.088 413.908 153.065 414.173Z" fill="#C0E193"/>
<path d="M176.246 409.537C187.042 409.42 195.726 403.092 195.643 395.403C195.56 387.714 186.741 381.576 175.945 381.693C165.149 381.81 156.464 388.137 156.548 395.826C156.631 403.515 165.45 409.654 176.246 409.537Z" fill="white"/>
<path d="M299.666 382.127L206.215 383.138C204.711 383.154 203.505 384.387 203.522 385.891C203.538 387.395 204.77 388.601 206.274 388.584L299.725 387.573C301.229 387.557 302.435 386.324 302.418 384.82C302.402 383.316 301.17 382.11 299.666 382.127Z" fill="white"/>
<path d="M275.109 391.873L204.252 392.64C202.97 392.654 201.942 393.704 201.956 394.986C201.97 396.268 203.02 397.296 204.302 397.282L275.159 396.516C276.441 396.502 277.469 395.451 277.455 394.169C277.441 392.887 276.391 391.859 275.109 391.873Z" fill="white"/>
<path d="M228.42 403.773L202.522 404.053C201.474 404.065 200.633 404.924 200.645 405.972C200.656 407.02 201.515 407.861 202.563 407.85L228.461 407.569C229.51 407.558 230.35 406.699 230.339 405.651C230.328 404.602 229.468 403.762 228.42 403.773Z" fill="white"/>
<path d="M145.276 405.194C144.072 405.233 142.888 404.882 141.9 404.194C140.911 403.507 140.17 402.518 139.788 401.376C139.121 399.255 139.151 396.976 139.872 394.872C141.384 390.229 145.609 379.659 148.259 372.88C148.74 371.721 149.553 370.731 150.597 370.034C151.641 369.338 152.868 368.966 154.123 368.967L298.087 367.381C298.087 367.381 306.247 366.545 306.601 374.519C306.955 382.493 306.839 396.728 306.839 396.728C306.839 396.728 307.928 402.175 300.293 402.302C295.253 402.376 167.48 404.776 145.276 405.194Z" fill="#A6CA75"/>
<path d="M146.191 399.367C144.856 399.404 143.533 399.122 142.331 398.542C140.517 397.632 138.629 395.802 139.814 392.228C141.315 387.585 146.614 373.837 149.247 367.058C149.718 365.901 150.523 364.911 151.559 364.213C152.595 363.515 153.815 363.141 155.064 363.139L298.113 361.585C298.113 361.585 306.22 360.749 306.574 368.723C306.928 376.697 306.817 390.932 306.817 390.932C306.817 390.932 307.875 396.379 300.308 396.506C295.105 396.564 160.214 399.102 146.191 399.367Z" fill="#C0E193"/>
<path d="M169.376 394.732C180.172 394.616 188.857 388.288 188.773 380.599C188.69 372.91 179.871 366.771 169.075 366.888C158.279 367.005 149.595 373.333 149.678 381.022C149.761 388.711 158.58 394.849 169.376 394.732Z" fill="white"/>
<path d="M292.796 367.322L199.345 368.333C197.841 368.349 196.635 369.581 196.652 371.085C196.668 372.589 197.9 373.795 199.404 373.779L292.855 372.768C294.358 372.751 295.564 371.519 295.548 370.015C295.532 368.511 294.3 367.305 292.796 367.322Z" fill="white"/>
<path d="M268.239 377.068L197.382 377.835C196.1 377.849 195.072 378.899 195.086 380.181C195.1 381.463 196.15 382.491 197.432 382.477L268.289 381.71C269.571 381.697 270.599 380.646 270.585 379.364C270.571 378.082 269.521 377.054 268.239 377.068Z" fill="white"/>
<path d="M221.545 388.968L195.647 389.249C194.598 389.26 193.758 390.119 193.769 391.167C193.78 392.216 194.639 393.056 195.688 393.045L221.586 392.765C222.634 392.753 223.475 391.894 223.463 390.846C223.452 389.798 222.593 388.957 221.545 388.968Z" fill="white"/>
<path d="M159.336 392.418C158.167 392.44 157.024 392.078 156.079 391.389C155.135 390.7 154.442 389.72 154.107 388.601C153.473 386.476 153.501 384.21 154.186 382.102C155.624 377.459 159.643 366.889 162.16 360.109C162.589 358.97 163.352 357.986 164.349 357.288C165.346 356.59 166.532 356.209 167.749 356.196L304.856 354.705C304.856 354.705 312.623 353.87 312.962 361.849C313.3 369.829 313.205 384.058 313.205 384.058C313.205 384.058 314.263 389.51 306.971 389.626C302.18 389.679 180.477 392.011 159.336 392.418Z" fill="#A6CA75"/>
<path d="M160.203 386.57C158.919 386.615 157.644 386.329 156.502 385.74C154.778 384.83 153.001 383.006 154.101 379.431C155.529 374.788 160.568 361.04 163.091 354.261C163.511 353.124 164.267 352.141 165.258 351.443C166.25 350.745 167.43 350.365 168.643 350.353L304.866 348.867C304.866 348.867 312.586 348.032 312.925 356.011C313.263 363.991 313.168 378.22 313.168 378.22C313.168 378.22 314.226 383.672 306.976 383.788C302.016 383.862 173.56 386.332 160.203 386.57Z" fill="#C0E193"/>
<path d="M182.282 381.971C192.564 381.86 200.832 375.536 200.749 367.847C200.665 360.158 192.263 354.015 181.981 354.127C171.699 354.238 163.431 360.561 163.514 368.25C163.598 375.939 172 382.082 182.282 381.971Z" fill="white"/>
<path d="M299.674 354.626L210.94 355.586C209.436 355.603 208.23 356.835 208.247 358.339C208.263 359.843 209.495 361.049 210.999 361.032L299.733 360.072C301.237 360.056 302.443 358.824 302.427 357.32C302.411 355.816 301.178 354.61 299.674 354.626Z" fill="white"/>
<path d="M275.988 364.889L208.727 365.561C207.445 365.574 206.416 366.624 206.429 367.906C206.442 369.188 207.491 370.217 208.774 370.204L276.034 369.531C277.316 369.519 278.345 368.469 278.332 367.187C278.319 365.905 277.27 364.876 275.988 364.889Z" fill="white"/>
<path d="M231.876 376.23L207.39 376.495C206.342 376.506 205.501 377.365 205.512 378.413C205.524 379.462 206.383 380.302 207.431 380.291L231.917 380.026C232.966 380.015 233.806 379.156 233.795 378.107C233.783 377.059 232.924 376.218 231.876 376.23Z" fill="white"/>
<path d="M140.597 378.39C139.428 378.4 138.288 378.027 137.351 377.328C136.415 376.629 135.733 375.642 135.409 374.519C134.8 372.386 134.852 370.118 135.557 368.015C137.048 363.393 141.178 352.865 143.774 346.118C144.213 344.981 144.986 344.004 145.992 343.316C146.997 342.628 148.188 342.261 149.406 342.263H286.518C286.518 342.263 294.296 341.518 294.545 349.497C294.793 357.476 294.545 371.706 294.545 371.706C294.545 371.706 295.528 377.163 288.252 377.205C283.446 377.211 161.742 378.215 140.597 378.39Z" fill="#A6CA75"/>
<path d="M141.527 372.573C140.25 372.599 138.987 372.301 137.857 371.706C136.139 370.775 134.383 368.93 135.52 365.36C137.001 360.739 142.193 347.043 144.769 340.296C145.201 339.162 145.968 338.187 146.967 337.499C147.965 336.81 149.15 336.441 150.363 336.441H286.597C286.597 336.441 294.328 335.695 294.576 343.675C294.825 351.654 294.576 365.884 294.576 365.884C294.576 365.884 295.549 371.341 288.326 371.383C283.361 371.394 154.884 372.462 141.527 372.573Z" fill="#C0E193"/>
<path d="M163.688 368.153C173.971 368.153 182.306 361.919 182.306 354.23C182.306 346.54 173.971 340.307 163.688 340.307C153.405 340.307 145.07 346.54 145.07 354.23C145.07 361.919 153.405 368.153 163.688 368.153Z" fill="white"/>
<path d="M281.367 342.078H192.628C191.124 342.078 189.905 343.297 189.905 344.801C189.905 346.305 191.124 347.524 192.628 347.524H281.367C282.871 347.524 284.091 346.305 284.091 344.801C284.091 343.297 282.871 342.078 281.367 342.078Z" fill="white"/>
<path d="M257.9 351.559H190.64C189.358 351.559 188.318 352.598 188.318 353.88C188.318 355.162 189.358 356.202 190.64 356.202H257.9C259.182 356.202 260.221 355.162 260.221 353.88C260.221 352.598 259.182 351.559 257.9 351.559Z" fill="white"/>
<path d="M213.34 362.955H188.852C187.804 362.955 186.954 363.804 186.954 364.853C186.954 365.901 187.804 366.751 188.852 366.751H213.34C214.389 366.751 215.238 365.901 215.238 364.853C215.238 363.804 214.389 362.955 213.34 362.955Z" fill="white"/>
<path d="M214.713 342.261C214.628 340.24 214.374 338.176 213.95 336.197L205.892 336.365C205.892 336.365 205.637 340.745 201.99 341.461L200.463 341.924C198.555 342.303 196.265 342.977 194.95 343.862C194.908 343.525 194.908 343.23 194.908 342.935C194.781 340.745 194.357 338.597 193.678 336.492L184.645 336.829C184.645 336.829 185.111 341.04 181.464 341.756L179.895 342.177C176.46 342.851 171.922 344.409 173.831 346.768C175.315 348.537 190.709 349.337 193.466 348.831C194.526 348.663 194.908 347.905 195.035 346.936C198.301 348.368 211.193 348.705 213.695 348.157C215.688 347.694 214.798 344.578 214.713 342.261Z" fill="#001B55"/>
<path d="M176.715 278.836C176.333 281.953 178.75 298.167 178.75 301.242C178.75 304.316 184.56 337.376 184.56 337.376L193.763 336.955C193.763 336.955 191.94 288.312 192.109 285.954C192.279 283.595 202.372 255.336 202.372 255.336C202.372 255.336 203.093 262.791 203.093 265.191C203.093 267.592 205.892 336.366 205.892 336.366H213.907L225.316 235.037L225.104 233.099L182.991 227.288C183.034 227.246 177.096 275.762 176.715 278.836Z" fill="url(#paint0_linear)"/>
<path d="M233.458 213.811L225.146 236.216L223.704 247.166L230.702 241.059C231.083 240.722 231.847 238.996 232.271 238.111L236.469 226.445L239.565 207.83C239.565 207.83 234.858 199.407 229.344 189.51L233.458 213.811ZM229.344 189.51L229.005 187.531L228.157 187.363L229.344 189.51ZM201.142 133.034C199.828 132.908 198.513 132.908 197.198 133.118C196.817 133.203 195.587 135.687 194.739 137.456C193.636 139.73 193.424 143.352 193.424 145.669C193.424 148.575 196.35 151.86 199.997 154.176C201.609 155.187 200.591 160.535 199.785 161.041C198.98 161.546 183.5 172.917 183.5 172.917L172.347 166.853L141.982 140.994L140.455 139.099C140.455 139.099 137.062 124.737 135.79 124.148C133.585 123.137 131.973 126.801 129.937 129.833C128.792 131.56 128.792 136.656 130.15 138.214L136.044 145.332L168.53 171.822L177.563 174.686L187.826 180.245L228.115 187.405C220.947 174.517 212.89 160.072 212.169 158.556C211.533 157.335 211.405 155.945 211.745 154.639C212.254 152.828 212.975 151.059 213.865 149.375C214.501 148.49 214.841 146.806 215.01 145.837C215.18 144.868 215.18 145.163 214.332 146.006C214.077 146.216 213.356 146.258 213.017 144.784C212.678 143.31 208.225 141.204 206.062 139.351C206.062 139.351 203.772 138.762 201.439 137.962" fill="url(#paint1_linear)"/>
<path d="M186.893 162.178C184.306 162.431 182.779 161.967 179.726 161.293C177.266 160.704 172.728 159.735 171.159 159.103C164.416 156.45 141.515 140.531 140.582 139.015C140.073 138.172 136.087 142.973 135.832 145.121C135.79 145.711 142.703 153.123 145.586 156.366C146.095 156.956 150.421 161.462 151.99 162.641C155.468 165.252 163.907 170.559 166.24 172.033C168.021 173.17 173.704 176.118 180.15 178.055C184.475 179.361 185.621 180.414 186.978 183.362C188.42 186.52 182.101 222.95 182.101 222.95C182.101 222.95 181.931 229.604 183.246 230.278C184.391 230.867 197.919 234.784 201.185 236.005C203.56 236.385 205.935 236.595 208.352 236.721L225.4 234.363C225.4 234.363 225.146 202.313 225.443 196.965C225.74 191.7 225.061 188.795 225.994 190.226C227.054 191.827 231.507 206.23 231.507 208.673C231.507 211.115 226.63 232.384 226.63 232.384L233.161 235.963C233.161 235.963 241.982 212.59 242.491 209.473C243 206.356 243.127 204.756 241.685 201.682C240.243 198.607 232.186 170.643 232.186 170.643C232.186 170.643 231.38 167.232 225.485 165.463C219.59 163.694 213.865 158.851 207.249 162.641C200.421 166.516 197.622 162.515 197.622 162.515C197.622 162.515 190.879 162.852 187.105 162.262" fill="url(#paint2_linear)"/>
<path d="M213.314 126.296C214.077 126.886 216.367 128.991 217.173 129.623C218.106 130.339 218.615 131.35 219.421 132.655C219.845 133.329 220.481 135.224 220.778 135.982C222.474 140.278 220.82 142.131 219.506 145.206C217.682 149.417 213.568 150.049 213.229 150.638C209.964 149.586 209.582 149.965 208.14 150.428C206.316 149.207 205.511 147.564 204.535 146.722C205.129 145.879 203.348 138.088 202.033 142.173C201.482 140.32 199.785 136.446 199.064 135.94C198.343 135.435 197.495 134.803 197.58 134.508C197.962 132.782 195.078 133.034 197.622 131.223C199.658 129.749 200.464 126.338 203.136 126.085C204.79 125.917 206.91 125.748 208.606 125.496C209.794 125.327 210.769 125.875 211.787 126.001C212.338 126.043 212.847 126.254 213.314 126.507" fill="url(#paint3_linear)"/>
<g opacity="0.07">
<g opacity="0.07">
<g opacity="0.07">
<g opacity="0.07">
<g opacity="0.07">
<path opacity="0.07" d="M203.814 250.282C202.669 253.567 198.259 260.011 195.417 263.801C192.576 267.592 183.627 275.762 184.179 285.659C184.73 295.556 190.795 320.993 190.795 323.31C190.795 325.626 188.547 336.407 186.85 339.735C185.154 343.062 185.451 346.515 186.299 346.515C186.681 346.515 188.08 347.02 190.031 346.515C191.515 346.136 193.466 347.694 194.272 347.315C194.866 347.063 194.993 345.167 194.993 345.167C195.035 344.367 194.951 343.567 194.696 342.809C194.272 341.588 193.975 340.324 193.763 339.061C193.424 329.753 192.618 308.19 192.788 306.674C193.085 303.853 190.837 289.618 192.873 282.627C194.908 275.635 203.772 250.282 203.814 250.282Z" fill="black"/>
</g>
</g>
</g>
</g>
</g>
<g opacity="0.07">
<g opacity="0.07">
<g opacity="0.07">
<g opacity="0.07">
<g opacity="0.07">
<path opacity="0.07" d="M225.188 193.258L225.103 226.277C225.103 226.277 225.951 233.268 224.764 234.026C223.576 234.784 218.869 235.373 217.427 235.373C216.452 235.373 203.305 236.89 207.97 234.573C210.048 233.52 223.195 226.234 218.996 219.033C214.798 211.831 216.749 202.65 219.802 196.417C222.855 190.184 225.23 186.015 225.23 186.015L225.188 193.258Z" fill="black"/>
</g>
</g>
</g>
</g>
</g>
<path opacity="0.07" d="M199.912 153.502C199.912 153.502 203.008 152.912 204.535 151.733C206.061 150.554 202.626 153.965 201.524 155.313C200.421 156.66 199.912 153.502 199.912 153.502Z" fill="black"/>
<path opacity="0.07" d="M219.93 247.25C219.93 247.25 216.876 259.548 214.119 263.17C211.193 267.044 214.416 284.859 211.702 292.692C209.115 300.105 212.635 316.193 211.999 321.331C211.49 325.542 211.405 334.597 209.158 339.651C208.394 341.377 206.783 342.641 206.783 343.441C206.783 347.947 212.932 345.041 212.932 345.041L213.271 341.04L217.47 305.664L225.231 235.458L219.93 247.25Z" fill="black"/>
<path d="M223.957 314.859C223.957 314.859 215.828 344.659 217.147 347.986C218.465 351.314 225.055 351.979 227.984 352.645C230.913 353.31 257.494 360.335 260.204 360.483C262.913 360.631 262.693 361 263.865 361C265.037 361 279.828 355.972 280.341 354.197C280.854 352.423 281.293 351.24 280.854 349.021C280.414 346.803 273.677 318.409 271.847 317.817C270.016 317.226 223.957 314.859 223.957 314.859Z" fill="url(#paint4_linear)"/>
<path d="M222.565 320.183C222.565 320.183 223.151 315.525 223.957 314.859C224.762 314.194 227.032 311.162 229.229 311.014C231.426 310.866 266.794 315.377 268.112 315.673C269.43 315.969 271.188 316.634 271.774 317.743C272.359 318.852 266.648 320.183 265.549 323.733C264.451 327.282 244.24 334.75 239.261 335.268C234.282 335.785 222.565 320.183 222.565 320.183Z" fill="url(#paint5_linear)"/>
<path d="M234.135 312.197C234.135 312.197 237.943 303.842 239.774 302.289C241.385 300.884 247.17 297.852 250.684 302.363C254.639 307.465 254.273 313.38 254.273 314.12C254.273 314.859 250.392 314.194 250.392 314.194C250.392 314.194 251.636 308.13 250.538 306.06C249.513 304.137 248.927 301.845 245.266 302.067C241.604 302.289 240.286 304.359 239.188 306.282C238.236 308.204 237.504 310.201 236.845 312.271C236.698 312.493 234.135 312.197 234.135 312.197Z" fill="#729642"/>
<path d="M240.213 312.715C240.213 312.715 244.021 302.51 245.851 300.588C247.462 298.887 253.613 295.486 257.128 300.958C261.082 307.169 260.277 314.12 260.277 314.933C260.277 315.746 256.396 315.081 256.396 315.081C256.396 315.081 257.568 307.686 256.469 305.098C255.444 302.732 254.858 299.922 251.27 300.218C247.682 300.514 246.291 302.954 245.192 305.394C244.24 307.76 243.508 310.201 242.849 312.715C242.849 313.084 240.213 312.715 240.213 312.715Z" fill="#729642"/>
<path d="M264.012 325.803C264.012 325.803 260.643 354.419 261.082 356.342C261.522 358.264 262.62 361 263.426 361C264.231 361 265.549 360.852 265.037 360.187C263.353 357.747 262.62 354.715 263.06 351.831C263.572 347.173 265.549 323.732 265.549 323.732L264.012 325.803Z" fill="#729642"/>
<path d="M238.382 337.338C239.515 337.338 240.433 336.411 240.433 335.268C240.433 334.124 239.515 333.197 238.382 333.197C237.25 333.197 236.332 334.124 236.332 335.268C236.332 336.411 237.25 337.338 238.382 337.338Z" fill="white"/>
<defs>
<linearGradient id="paint0_linear" x1="176.674" y1="282.332" x2="225.316" y2="282.332" gradientUnits="userSpaceOnUse">
<stop stop-color="#001B55"/>
<stop offset="1" stop-color="#4B44BE"/>
</linearGradient>
<linearGradient id="paint1_linear" x1="129.104" y1="185.571" x2="239.565" y2="185.571" gradientUnits="userSpaceOnUse">
<stop stop-color="#F87B58"/>
<stop offset="0.63" stop-color="#F89453"/>
<stop offset="0.81" stop-color="#F8C548"/>
<stop offset="0.94" stop-color="#F89952"/>
<stop offset="1" stop-color="#F89C51"/>
</linearGradient>
<linearGradient id="paint2_linear" x1="135.832" y1="187.819" x2="242.843" y2="187.819" gradientUnits="userSpaceOnUse">
<stop stop-color="#8CC73D"/>
<stop offset="1" stop-color="#729642"/>
</linearGradient>
<linearGradient id="paint3_linear" x1="196.562" y1="138.051" x2="221.5" y2="138.051" gradientUnits="userSpaceOnUse">
<stop/>
<stop offset="1" stop-color="#060071"/>
</linearGradient>
<linearGradient id="paint4_linear" x1="217.867" y1="315.714" x2="263.363" y2="373.779" gradientUnits="userSpaceOnUse">
<stop stop-color="#A5EF42"/>
<stop offset="1" stop-color="#8CC73D"/>
</linearGradient>
<linearGradient id="paint5_linear" x1="223.231" y1="311.46" x2="243.751" y2="349.757" gradientUnits="userSpaceOnUse">
<stop stop-color="#90D138"/>
<stop offset="1" stop-color="#8CC73D"/>
</linearGradient>
</defs>
</svg>
