<svg width="251" height="251" viewBox="0 0 251 251" fill="none" xmlns="http://www.w3.org/2000/svg">
<g filter="url(#filter0_d)">
<circle cx="45" cy="45" r="37" fill="white"/>
</g>
<path d="M50.3425 43.452C52.6105 44.028 54.3385 45.126 55.5265 46.746C56.7505 48.33 57.3625 50.31 57.3625 52.686C57.3625 55.962 56.1565 58.572 53.7445 60.516C51.3325 62.46 48.0745 63.432 43.9705 63.432C41.6305 63.432 39.3805 63.072 37.2205 62.352C35.0605 61.632 33.2245 60.624 31.7125 59.328C30.8845 58.608 30.4705 57.762 30.4705 56.79C30.4705 55.998 30.6865 55.332 31.1185 54.792C31.5865 54.216 32.1265 53.928 32.7385 53.928C33.0985 53.928 33.4225 54 33.7105 54.144C33.9985 54.252 34.3945 54.45 34.8985 54.738C36.4105 55.746 37.8505 56.52 39.2185 57.06C40.5865 57.6 42.0805 57.87 43.7005 57.87C46.0765 57.87 47.8405 57.402 48.9925 56.466C50.1445 55.494 50.7205 54.036 50.7205 52.092C50.7205 50.184 50.1085 48.78 48.8845 47.88C47.6965 46.944 45.8425 46.476 43.3225 46.476H40.2445C39.4165 46.476 38.7685 46.206 38.3005 45.666C37.8685 45.09 37.6525 44.442 37.6525 43.722C37.6525 42.966 37.8685 42.318 38.3005 41.778C38.7685 41.238 39.4165 40.968 40.2445 40.968H42.4045C47.3365 40.968 49.8025 39.114 49.8025 35.406C49.8025 33.678 49.2805 32.346 48.2365 31.41C47.1925 30.474 45.7525 30.006 43.9165 30.006C41.2885 30.006 38.4805 31.05 35.4925 33.138C34.9885 33.426 34.5925 33.642 34.3045 33.786C34.0165 33.894 33.6925 33.948 33.3325 33.948C32.7205 33.948 32.1805 33.678 31.7125 33.138C31.2805 32.562 31.0645 31.878 31.0645 31.086C31.0645 30.546 31.1545 30.096 31.3345 29.736C31.5505 29.34 31.8745 28.944 32.3065 28.548C33.8185 27.288 35.6185 26.298 37.7065 25.578C39.8305 24.822 41.9905 24.444 44.1865 24.444C47.9305 24.444 50.9005 25.362 53.0965 27.198C55.3285 29.034 56.4445 31.482 56.4445 34.542C56.4085 36.63 55.8505 38.466 54.7705 40.05C53.7265 41.598 52.2505 42.732 50.3425 43.452Z" fill="#001B55" fill-opacity="0.8"/>
<g filter="url(#filter1_d)">
<circle cx="138.5" cy="138.5" r="104.5" fill="white"/>
</g>
<path d="M147.079 111.539C147.079 103.881 142.93 96.7012 136.309 92.872L135.91 92.7124H133.118V110.821C128.651 114.252 122.428 114.252 117.961 110.821V92.7124H115.169L114.77 92.9517C108.148 96.7012 104 103.881 104 111.539C104 111.858 104 112.257 104 112.576C104 112.736 104 112.816 104 112.975C104 113.215 104 113.374 104.08 113.614C104.08 113.773 104.08 113.933 104.16 114.092C104.16 114.252 104.239 114.491 104.239 114.651C104.239 114.81 104.319 114.97 104.319 115.209C104.319 115.369 104.399 115.528 104.399 115.688C104.399 115.847 104.479 116.087 104.558 116.246C104.558 116.406 104.638 116.565 104.638 116.725C104.718 116.884 104.718 117.124 104.798 117.283C104.798 117.443 104.878 117.523 104.878 117.682C104.957 117.921 105.037 118.081 105.037 118.32C105.117 118.4 105.117 118.56 105.197 118.639C105.276 118.879 105.356 119.118 105.436 119.278C105.436 119.357 105.516 119.437 105.516 119.517C105.596 119.756 105.755 119.996 105.835 120.235C105.835 120.315 105.915 120.315 105.915 120.394C106.074 120.714 106.154 120.953 106.313 121.272C107.43 123.426 108.866 125.34 110.621 127.016L111.579 128.053C114.61 131.164 116.684 139.301 116.684 144.646V180.146C116.684 185.012 120.593 188.921 125.46 188.921C130.326 188.921 134.235 185.012 134.235 180.146V144.726C134.235 139.381 136.309 131.244 139.34 128.133L140.298 127.096C142.053 125.42 143.489 123.506 144.606 121.352C144.765 121.112 144.925 120.793 145.004 120.474C145.004 120.394 145.084 120.394 145.084 120.315C145.164 120.075 145.324 119.836 145.403 119.597C145.403 119.517 145.483 119.437 145.483 119.357C145.563 119.118 145.643 118.958 145.722 118.719C145.802 118.639 145.802 118.48 145.882 118.4C145.962 118.161 146.042 118.001 146.042 117.762C146.121 117.602 146.121 117.523 146.121 117.363C146.201 117.203 146.201 116.964 146.281 116.805C146.281 116.645 146.361 116.485 146.361 116.326C146.44 116.166 146.44 115.927 146.52 115.767C146.52 115.608 146.6 115.448 146.6 115.289C146.6 115.129 146.68 114.97 146.68 114.73C146.68 114.571 146.76 114.332 146.76 114.172C146.76 114.012 146.839 113.853 146.839 113.693C146.839 113.454 146.839 113.294 146.919 113.055C146.919 112.896 146.919 112.816 146.919 112.656C147.079 112.257 147.079 111.858 147.079 111.539ZM114.77 96.7012V112.257L115.328 112.736C118.28 115.289 121.87 116.565 125.539 116.565C129.209 116.565 132.799 115.289 135.751 112.816L136.309 112.337V96.7012C141.016 100.132 143.888 105.636 143.888 111.539C143.888 112.098 143.888 112.656 143.808 113.215V113.294C143.728 113.853 143.648 114.411 143.569 114.89C143.569 114.97 143.569 114.97 143.569 115.049C143.489 115.608 143.329 116.087 143.17 116.645V116.725C143.01 117.283 142.851 117.762 142.611 118.32C142.611 118.32 142.611 118.32 142.611 118.4C141.734 120.554 140.457 122.469 138.862 124.224L138.144 124.942C134.793 127.973 130.406 129.888 125.539 129.888C120.673 129.888 116.285 127.973 113.015 124.862L112.297 124.144C110.701 122.469 109.425 120.474 108.547 118.32C108.547 118.32 108.547 118.32 108.547 118.24C108.308 117.762 108.148 117.203 107.989 116.645V116.565C107.829 116.087 107.749 115.528 107.59 114.97C107.59 114.89 107.59 114.89 107.59 114.81C107.51 114.252 107.43 113.773 107.351 113.215V113.135C107.191 112.656 107.191 112.098 107.191 111.539C107.191 105.636 110.063 100.132 114.77 96.7012ZM131.124 144.726V180.146C131.124 183.257 128.651 185.73 125.539 185.73C122.428 185.73 119.955 183.257 119.955 180.146V144.726C119.955 141.296 119.078 135.871 117.243 131.403C119.796 132.52 122.588 133.079 125.539 133.079C128.491 133.079 131.283 132.52 133.836 131.403C132.001 135.871 131.124 141.375 131.124 144.726Z" fill="url(#paint0_linear)"/>
<path d="M174.123 144.885L175 144.407V137.865H167.023V100.77C167.501 100.53 167.9 100.291 168.219 99.8921C168.937 99.0944 169.256 98.0573 169.176 97.0202L168.459 90H162.396L161.678 97.0202C161.598 98.0573 161.917 99.0944 162.635 99.8921C162.954 100.291 163.353 100.53 163.832 100.77V137.865H155.854V144.407L156.732 144.885C157.689 145.364 158.327 146.321 158.327 147.438C158.327 148.555 157.769 149.512 156.732 149.991L155.854 150.47V179.348C155.854 184.613 160.162 188.921 165.427 188.921C170.692 188.921 175 184.613 175 179.348V150.47L174.123 149.991C173.165 149.512 172.527 148.555 172.527 147.438C172.527 146.321 173.165 145.364 174.123 144.885ZM165.267 93.191H165.587L165.985 97.3393C165.985 97.5787 165.906 97.7382 165.826 97.818C165.746 97.8978 165.666 97.9775 165.427 97.9775C165.188 97.9775 165.028 97.8978 165.028 97.818C165.028 97.7382 164.869 97.5787 164.869 97.3393L165.267 93.191ZM159.045 142.572V141.056H171.809V142.572C170.293 143.689 169.336 145.524 169.336 147.438C169.336 149.433 170.293 151.188 171.809 152.304V177.753H159.045V152.304C160.561 151.188 161.518 149.353 161.518 147.438C161.518 145.444 160.561 143.689 159.045 142.572ZM165.427 185.73C162.475 185.73 160.002 183.656 159.284 180.944H171.65C170.852 183.656 168.379 185.73 165.427 185.73Z" fill="url(#paint1_linear)"/>
<defs>
<filter id="filter0_d" x="0" y="0" width="90" height="90" filterUnits="userSpaceOnUse" color-interpolation-filters="sRGB">
<feFlood flood-opacity="0" result="BackgroundImageFix"/>
<feColorMatrix in="SourceAlpha" type="matrix" values="0 0 0 0 0 0 0 0 0 0 0 0 0 0 0 0 0 0 127 0"/>
<feOffset/>
<feGaussianBlur stdDeviation="4"/>
<feColorMatrix type="matrix" values="0 0 0 0 0 0 0 0 0 0 0 0 0 0 0 0 0 0 0.04 0"/>
<feBlend mode="normal" in2="BackgroundImageFix" result="effect1_dropShadow"/>
<feBlend mode="normal" in="SourceGraphic" in2="effect1_dropShadow" result="shape"/>
</filter>
<filter id="filter1_d" x="26" y="26" width="225" height="225" filterUnits="userSpaceOnUse" color-interpolation-filters="sRGB">
<feFlood flood-opacity="0" result="BackgroundImageFix"/>
<feColorMatrix in="SourceAlpha" type="matrix" values="0 0 0 0 0 0 0 0 0 0 0 0 0 0 0 0 0 0 127 0"/>
<feOffset/>
<feGaussianBlur stdDeviation="4"/>
<feColorMatrix type="matrix" values="0 0 0 0 0 0 0 0 0 0 0 0 0 0 0 0 0 0 0.04 0"/>
<feBlend mode="normal" in2="BackgroundImageFix" result="effect1_dropShadow"/>
<feBlend mode="normal" in="SourceGraphic" in2="effect1_dropShadow" result="shape"/>
</filter>
<linearGradient id="paint0_linear" x1="104.582" y1="94.4941" x2="173.381" y2="122.825" gradientUnits="userSpaceOnUse">
<stop stop-color="#FF7412"/>
<stop offset="1" stop-color="#FFA464"/>
</linearGradient>
<linearGradient id="paint1_linear" x1="156.113" y1="91.8319" x2="190.777" y2="98.0021" gradientUnits="userSpaceOnUse">
<stop stop-color="#FF7412"/>
<stop offset="1" stop-color="#FFA464"/>
</linearGradient>
</defs>
</svg>
