<?xml version="1.0" ?><!DOCTYPE svg  PUBLIC '-//W3C//DTD SVG 1.1//EN'  'http://www.w3.org/Graphics/SVG/1.1/DTD/svg11.dtd'><svg enable-background="new 0 0 64 64" height="64px" id="Layer_1" version="1.1" viewBox="0 0 64 64" width="64px" xml:space="preserve" xmlns="http://www.w3.org/2000/svg" xmlns:xlink="http://www.w3.org/1999/xlink"><g><path d="M59.068,55.99c0-0.539-0.224-0.805-0.572-1.205c-0.347-0.4-1.196-0.373-1.196-0.373h-6.794h-1.104H18.346   H14.23H4.345c-0.756,0.012-3.412,0.252-3.412,3.074v3.92c0.068,0.857,0.547,2.572,3.271,2.572h11.155h2.986h31.056   c0,0,0.97,0,2.233,0c2.221,0,5.363,0,5.84,0c0.747,0,0.996-0.352,1.336-0.713c0.34-0.363,0.258-1.205,0.258-1.205   S59.068,56.529,59.068,55.99z M49.401,60.768H18.346v-3.145h31.056V60.768z" fill="#525f7f"/><path d="M55.788,23.911v-0.021c0,0-1.146-0.137-1.825-1.99c0-0.001,0-0.001-0.002-0.003   c-0.692-2.828-2.748-5.095-5.427-6.132l0.024-0.025c0,0-1.77-0.566-1.769-2.651c0-0.075-0.008-0.133-0.012-0.196   c0.021-0.288,0.058-0.572,0.058-0.864c0-6.633-5.372-12.007-12.005-12.007c-6.649,0-12.025,5.374-12.025,12.007   c0,3.681,1.652,6.957,4.25,9.156l-0.005,0.003c0,0,1.061,0.749,1.003,1.918c0.003,0.006,0.006,0.007,0.007,0.012   c0.018,1.026,0.242,1.998,0.633,2.878L28.684,26c0,0,0.311,0.528,0,1.104c-0.02,0.036-0.014,0.061-0.027,0.097   c-0.751,1.303-1.194,2.815-1.194,4.424c0,4.834,3.84,8.766,8.652,8.914l0.007,0.01c0,0,0.044-0.002,0.105-0.002   c0.057,0,0.11,0.008,0.167,0.008c0.021,0,0.039-0.004,0.06-0.006c0.357,0.02,0.946,0.109,1.44,0.459   c0.028,0.021,0.051,0.021,0.077,0.035c0.974,0.793,2.199,1.281,3.556,1.281c0.768,0,1.491-0.158,2.155-0.424v0.01   c0,0,0.847-0.395,1.607,0.223c0.029,0.023,0.055,0.029,0.081,0.049c0.977,0.852,2.11,1.51,3.35,1.955l-0.022,0.018   c0,0,0.704,0.277,0.704,1.299v2.238c0.037,0.623,0.317,1.936,1.991,1.936h5.48c2.392,0,2.204-2.479,2.204-2.479l0.004,0.002v-3.867   c0.045-0.355,0.224-0.924,0.838-1.635c0.001-0.002,0.001-0.004,0.001-0.004c1.95-1.949,3.147-4.637,3.147-7.596   C63.067,29.328,60.019,25.335,55.788,23.911z" fill="#525f7f"/></g></svg>